<?xml version="1.0" encoding="UTF-8" standalone="no"?>
<!-- Created with Inkscape (http://www.inkscape.org/) -->

<svg
   xmlns:dc="http://purl.org/dc/elements/1.1/"
   xmlns:cc="http://creativecommons.org/ns#"
   xmlns:rdf="http://www.w3.org/1999/02/22-rdf-syntax-ns#"
   xmlns:svg="http://www.w3.org/2000/svg"
   xmlns="http://www.w3.org/2000/svg"
   xmlns:sodipodi="http://sodipodi.sourceforge.net/DTD/sodipodi-0.dtd"
   xmlns:inkscape="http://www.inkscape.org/namespaces/inkscape"
   width="13mm"
   height="13mm"
   viewBox="0 0 12.999999 13"
   version="1.1"
   id="svg8"
   sodipodi:docname="logo_navbar.svg"
   inkscape:version="0.91 r13725">
  <defs
     id="defs2" />
  <sodipodi:namedview
     id="base"
     pagecolor="#ffffff"
     bordercolor="#666666"
     borderopacity="1.0"
     inkscape:pageopacity="0.0"
     inkscape:pageshadow="2"
     inkscape:zoom="11.2"
     inkscape:cx="34.832826"
     inkscape:cy="30.492659"
     inkscape:document-units="mm"
     inkscape:current-layer="layer1"
     showgrid="false"
     width="85mm"
     inkscape:window-width="1215"
     inkscape:window-height="1000"
     inkscape:window-x="65"
     inkscape:window-y="24"
     inkscape:window-maximized="1" />
  <metadata
     id="metadata5">
    <rdf:RDF>
      <cc:Work
         rdf:about="">
        <dc:format>image/svg+xml</dc:format>
        <dc:type
           rdf:resource="http://purl.org/dc/dcmitype/StillImage" />
        <dc:title></dc:title>
      </cc:Work>
    </rdf:RDF>
  </metadata>
  <g
     inkscape:groupmode="layer"
     id="layer4"
     inkscape:label="Camada 3"
     transform="translate(0,-42)">
    <path
       inkscape:connector-curvature="0"
       id="path397"
       style="fill:#ffffff;fill-rule:evenodd;stroke-width:0.01614458"
       d="m 3.7315835,44.501455 c 0.7049222,-0.01539 1.2944728,-0.35011 2.0400203,-0.682426 0.9181364,-0.409105 1.244136,-0.328579 1.9606157,-0.150714 2.046007,0.508135 3.6718115,2.555092 3.9405495,4.817215 0.101974,0.859236 0.01767,1.161353 -0.09622,1.914196 -0.134375,0.888815 -1.064366,1.943995 -1.7864647,2.586425 -0.2480678,0.220726 -0.6626483,0.379767 -0.7921678,0.544548 -0.1017939,0.129557 -0.018844,0.0954 -0.088528,0.2075 -1.3916135,0.01768 -0.9611889,0.191068 -1.2621236,0.292141 -0.3157009,-0.0058 -0.8433512,-0.237107 -1.1335545,-0.03748 0.097619,0.08377 0.1481771,0.05821 0.2776856,0.151236 -0.2922454,0.158741 -0.8414985,0.107069 -1.0566148,0.07732 0.00177,-0.0093 0.00662,-0.02123 0.00837,-0.02688 l 0.040103,-0.144341 C 5.5565939,53.964386 5.3019075,53.904515 5.0466778,53.816452 4.5527438,53.646142 4.0423208,53.482933 3.5801995,53.242761 3.1560681,53.022348 3.3229845,52.779907 3.0998708,52.530725 3.013776,52.434542 2.5555488,52.108588 2.4101718,51.993662 1.9555485,51.634055 2.1710127,51.884507 2.0095521,51.362168 1.8396134,50.812705 1.4935979,50.219401 1.7614849,49.792181 c 0.062266,0.03278 0.07507,0.07339 0.1571613,0.09645 0.06283,-0.232739 0.00297,-0.181631 -0.1154665,-0.414113 0.6400954,-0.963243 -0.039381,-1.816035 0.026957,-2.056862 0.028084,-0.101801 0.091354,-0.243004 0.1369181,-0.36676 0.1183942,-0.321907 0.1424182,-0.539654 0.4937697,-0.463681 0.1308873,0.02824 -0.06405,0.04937 0.078907,0.01022 0.017411,-0.208402 -0.058113,-0.248242 0.041922,-0.404867 -0.091455,-0.03365 0.00594,0.01372 -0.080619,-0.01436 -0.07426,-0.02405 0.00519,0.03202 -0.074759,-0.03609 0.010576,-0.295022 0.2070052,-0.509853 0.4537574,-0.785725 -0.093105,-0.08362 -0.084786,-0.03102 -0.1902956,-0.112166 0.286373,-0.550946 0.3913832,-0.390163 0.2587266,-0.583475 -0.2008412,0.03545 -0.5480707,0.566374 -0.9941214,0.435133 0.040917,-0.203647 0.2108048,-0.304284 0.403863,-0.455459 -0.082093,-0.0221 -0.029657,-0.02177 -0.1378851,-0.0089 -0.4890346,0.05798 -0.579264,0.298999 -0.7570859,0.480254 -1.06606045,1.087074 -0.66426467,1.064542 -0.96211204,2.286676 -0.0772183,0.317262 -0.006259,0.229796 -0.29600178,0.317857 -0.0771738,0.357401 0.0981951,0.277207 0.15608047,0.62132 0.0340888,0.202868 -0.005183,0.40814 -0.0240108,0.597127 -0.02291,0.230852 -0.0565639,0.359547 -0.10537058,0.581712 -0.23676964,1.078602 -0.33444609,-0.191908 0.58901267,2.210933 0.21474924,0.558656 0.74066074,0.994997 1.11737674,1.485852 0.3171233,-0.22104 0.2116455,-0.179112 0.3691418,-0.402746 l 0.6285136,0.685196 c -0.1957645,0.02827 -0.1613151,-0.0687 -0.3839487,-0.05068 0.6286904,0.680536 1.4761696,0.561908 2.0848885,0.781303 0.1897703,0.06834 0.3524836,0.128037 0.5196521,0.289511 0.6558378,0.633335 0.8873348,0.01756 1.5926868,0.317275 L 6.8725871,54.640058 6.63418,54.47696 c 0.3074058,-0.109113 0.2634365,0.09175 0.9227512,-0.195962 l 0.1231042,0.246127 c -0.1361659,0.140623 -0.3508522,0.147015 -0.5109868,0.19964 0.084776,0.07201 0.033477,0.05778 0.1685926,0.0255 l 0.5486719,-0.167655 c 0.2456021,-0.0664 0.4734385,-0.130527 0.7133232,-0.200094 0.4752776,-0.138116 0.9925482,-0.299202 1.4536877,-0.534649 1.246343,-0.636372 0.725217,-0.469223 1.31598,-0.978171 0.593868,-0.511548 0.551671,-0.656363 0.802444,-1.221414 1.230534,-2.772488 1.003596,-2.600861 -0.06049,-5.462117 C 11.665797,44.990409 11.999455,45.293275 11.488514,44.88588 10.861101,44.385589 10.803401,43.991267 10.346374,43.640173 9.5662123,43.040982 8.6382476,42.572749 7.8523588,42.364081 7.4138346,42.247665 7.0192786,42.162696 6.5276963,42.17962 c -0.5935134,0.02043 -2.3869336,0.389721 -2.817008,0.973289 -0.2080416,0.282297 -0.2421115,0.95155 0.020893,1.348505 z" />
  </g>
  <g
     inkscape:groupmode="layer"
     id="layer3"
     inkscape:label="Camada 2"
     transform="translate(0,-42)">
    <ellipse
       style="fill:#ffffff;stroke-width:0.0466135"
       id="path388"
       cx="6.6779447"
       cy="48.575321"
       rx="5.6462531"
       ry="5.3377147" />
  </g>
  <g
     inkscape:label="Camada 1"
     inkscape:groupmode="layer"
     id="layer1"
     transform="translate(0,-284)">
    <g
       id="g339"
       transform="matrix(0.05946282,0,0,0.05946282,-67.551288,211.79112)">
      <path
         inkscape:connector-curvature="0"
         id="path116"
         style="fill:#000000;fill-rule:evenodd;stroke-width:0.33466101"
         d="m 1202.4667,1261.1066 c 11.1501,-0.2438 20.4753,-5.5379 32.268,-10.7943 14.5226,-6.471 19.6791,-5.1973 31.012,-2.3839 32.3627,8.0374 58.0789,40.4151 62.3296,76.1962 1.613,13.591 0.2794,18.3697 -1.5219,30.2778 -2.1255,14.0588 -16.8356,30.7491 -28.2574,40.9108 -3.9238,3.4913 -10.4814,6.0069 -12.5301,8.6133 -1.6101,2.0493 -0.2981,1.5091 -1.4003,3.2822 -22.0118,0.2798 -15.2036,3.0222 -19.9636,4.6209 -4.9936,-0.092 -13.3397,-3.7504 -17.93,-0.5929 1.5441,1.3251 2.3438,0.9208 4.3923,2.3922 -4.6226,2.5109 -13.3104,1.6936 -16.713,1.2229 0.028,-0.1462 0.1048,-0.3359 0.1326,-0.4251 l 0.6344,-2.2831 c -3.5855,-1.3572 -7.614,-2.3042 -11.6511,-3.6972 -7.8128,-2.6938 -15.8864,-5.2754 -23.196,-9.0743 -6.7087,-3.4864 -4.0685,-7.3212 -7.5976,-11.2626 -1.3618,-1.5214 -8.6098,-6.6772 -10.9093,-8.495 -7.191,-5.6881 -3.7829,-1.7266 -6.3368,-9.9887 -2.688,-8.6911 -8.1611,-18.0757 -3.9238,-24.8332 0.9849,0.5185 1.1874,1.1609 2.4859,1.5255 0.9938,-3.6813 0.047,-2.8729 -1.8264,-6.5502 10.1247,-15.2361 -0.6229,-28.7251 0.4264,-32.5344 0.4442,-1.6103 1.445,-3.8437 2.1657,-5.8012 1.8727,-5.0918 2.2527,-8.536 7.8102,-7.3343 2.0703,0.4467 -1.0131,0.7809 1.2481,0.1616 0.2754,-3.2964 -0.9192,-3.9266 0.6631,-6.404 -1.4466,-0.5323 0.094,0.2166 -1.2752,-0.2269 -1.1746,-0.3804 0.082,0.5064 -1.1825,-0.571 0.1672,-4.6665 3.2743,-8.0646 7.1773,-12.4282 -1.4727,-1.3227 -1.3411,-0.4907 -3.01,-1.7742 4.5297,-8.7146 6.1907,-6.1714 4.0924,-9.2291 -3.1768,0.5607 -8.6691,8.9586 -15.7245,6.8827 0.6472,-3.2212 3.3344,-4.813 6.3881,-7.2042 -1.2985,-0.3498 -0.4691,-0.3443 -2.181,-0.1404 -7.7353,0.9171 -9.1625,4.7294 -11.9752,7.5964 -16.8624,17.1948 -10.507,16.8384 -15.2182,36.1695 -1.2214,5.0183 -0.099,3.6348 -4.682,5.0277 -1.2207,5.6532 1.5532,4.3847 2.4688,9.8277 0.5392,3.2089 -0.082,6.4558 -0.3798,9.4451 -0.3624,3.6515 -0.8947,5.6871 -1.6667,9.2012 -3.7451,17.0608 -5.2901,-3.0355 9.3167,34.9714 3.3968,8.8366 11.7154,15.7384 17.6741,23.5025 5.0161,-3.4963 3.3477,-2.8331 5.8389,-6.3705 l 9.9415,10.8381 c -3.0965,0.4471 -2.5516,-1.0864 -6.0731,-0.8017 9.9443,10.7644 23.3493,8.888 32.9777,12.3583 3.0017,1.0811 5.5754,2.0253 8.2196,4.5793 10.3737,10.0178 14.0354,0.2776 25.1923,5.0185 l 1.9526,-3.0534 -3.771,-2.5798 c 4.8624,-1.7259 4.1669,1.4512 14.5956,-3.0996 l 1.9472,3.8931 c -2.1538,2.2243 -5.5496,2.3254 -8.0825,3.1578 1.3409,1.1391 0.5295,0.914 2.6667,0.4034 l 8.6786,-2.6518 c 3.8848,-1.0503 7.4886,-2.0646 11.283,-3.165 7.5177,-2.1846 15.6996,-4.7326 22.9937,-8.4568 19.714,-10.0658 11.4711,-7.4219 20.8155,-15.4722 9.3935,-8.0914 8.726,-10.382 12.6926,-19.3197 19.464,-43.8538 15.8744,-41.1391 -0.9567,-86.397 -7.0461,-18.9456 -1.7685,-14.155 -9.8503,-20.599 -9.9241,-7.9133 -10.8368,-14.1505 -18.0658,-19.7039 -12.3402,-9.4777 -27.0183,-16.884 -39.4491,-20.1846 -6.9363,-1.8414 -13.1772,-3.1854 -20.9528,-2.9177 -9.3879,0.3233 -37.7553,6.1644 -44.558,15.395 -3.2907,4.4652 -3.8296,15.0511 0.3305,21.33 z" />
      <g
         id="Layer1000"
         transform="matrix(0.33466099,0,0,0.33466099,1004.3974,1171.8623)">
        <g
           id="Layer1001">
          <path
             inkscape:connector-curvature="0"
             id="path118"
             style="fill:#ffec00;fill-rule:evenodd;stroke:#1b1918;stroke-width:1.00010002;stroke-linecap:butt;stroke-linejoin:miter;stroke-dasharray:none"
             d="m 881.7301,297.7372 c -12.1288,-10.7489 -55.2531,-7.626 -69.3725,0.5313 -21.1792,12.2361 -47.4907,34.5528 -45.6717,64.7098 0.3763,6.2393 8.6041,4.2033 14.8494,3.9447 27.5885,-1.1422 17.1896,-0.515 27.5885,-1.1422 33.7966,-2.0385 76.2359,-33.8212 72.6063,-68.0436 z" />
          <path
             inkscape:connector-curvature="0"
             id="path120"
             style="fill:#f07c00;fill-rule:evenodd;stroke:#323b34;stroke-width:1.00010002;stroke-linecap:butt;stroke-linejoin:miter;stroke-dasharray:none"
             d="m 857.4807,302.3308 c -32.792,-1.5012 -58.0514,4.3761 -75.465,37.9494" />
          <path
             inkscape:connector-curvature="0"
             id="path122"
             style="fill:none;stroke:#1b1918;stroke-width:1.00010002;stroke-linecap:butt;stroke-linejoin:miter;stroke-dasharray:none"
             d="m 864.6514,320.5568 c -19.9001,26.1066 -40.622,41.7008 -77.5428,33.4998" />
        </g>
        <g
           id="Layer1002">
          <path
             inkscape:connector-curvature="0"
             id="path125"
             style="fill:#ffec00;fill-rule:evenodd;stroke:#1b1918;stroke-width:1.00010002;stroke-linecap:butt;stroke-linejoin:miter;stroke-dasharray:none"
             d="m 777.3515,225.705 c -14.0775,-3.5477 -47.0855,16.7158 -54.9511,29.0245 -11.7984,18.4631 -23.5221,47.0591 -9.642,70.2922 2.8717,4.8069 8.5756,-0.2046 13.4357,-2.9852 21.4696,-12.283 13.4581,-7.4967 21.4696,-12.283 26.0371,-15.5553 46.6841,-58.3288 29.6878,-84.0485 z" />
          <path
             inkscape:connector-curvature="0"
             id="path127"
             style="fill:#f07c00;fill-rule:evenodd;stroke:#323b34;stroke-width:1.00010002;stroke-linecap:butt;stroke-linejoin:miter;stroke-dasharray:none"
             d="m 759.9605,239.3561 c -26.6976,12.3261 -44.3625,27.4145 -44.369,61.294" />
          <path
             inkscape:connector-curvature="0"
             id="path129"
             style="fill:none;stroke:#1b1918;stroke-width:1.00010002;stroke-linecap:butt;stroke-linejoin:miter;stroke-dasharray:none"
             d="m 773.1777,250.8943 c -5.0625,28.9667 -15.1126,49.9119 -47.856,58.6121" />
        </g>
        <g
           id="Layer1003">
          <path
             inkscape:connector-curvature="0"
             id="path132"
             style="fill:#ffec00;fill-rule:evenodd;stroke:#1b1918;stroke-width:1.00010002;stroke-linecap:butt;stroke-linejoin:miter;stroke-dasharray:none"
             d="m 650.0729,259.5802 c -11.4596,11.4596 -10.9387,54.6937 -3.6462,69.2787 10.9387,21.8774 31.6309,49.4847 61.8426,49.4847 6.2507,0 4.7138,-8.3355 4.8316,-14.585 0.5209,-27.6072 0.5209,-17.1894 0.5209,-27.6072 0,-33.858 -29.17,-78.1339 -63.5489,-76.5712 z" />
          <path
             inkscape:connector-curvature="0"
             id="path134"
             style="fill:#f07c00;fill-rule:evenodd;stroke:#323b34;stroke-width:1.00010002;stroke-linecap:butt;stroke-linejoin:miter;stroke-dasharray:none"
             d="m 653.1983,284.0621 c -3.4728,32.6422 0.8731,58.2096 33.3371,77.613" />
          <path
             inkscape:connector-curvature="0"
             id="path136"
             style="fill:none;stroke:#1b1918;stroke-width:1.00010002;stroke-linecap:butt;stroke-linejoin:miter;stroke-dasharray:none"
             d="m 671.8229,278.0017 c 24.8612,21.4359 39.1795,43.0591 28.7705,79.4191" />
        </g>
        <g
           id="Layer1004">
          <path
             inkscape:connector-curvature="0"
             id="path139"
             style="fill:#cb6c36;fill-rule:evenodd;stroke:#1b1918;stroke-width:1.00010002;stroke-linecap:butt;stroke-linejoin:miter;stroke-dasharray:none"
             d="m 661.5415,428.137 -75.0084,88.5516 59.4157,60.8314 32.0107,-36.8608 -53.4013,-26.575 63.0279,-86.4681 z" />
          <path
             inkscape:connector-curvature="0"
             id="path141"
             style="fill:#cb6c36;fill-rule:evenodd;stroke:#1b1918;stroke-width:1.00010002;stroke-linecap:butt;stroke-linejoin:miter;stroke-dasharray:none"
             d="m 758.9483,427.0952 73.4458,79.1756 -46.7624,28.5683 19.4004,36.8608 89.3482,-59.6993 -111.4709,-86.989 z" />
          <path
             inkscape:connector-curvature="0"
             id="path143"
             style="fill:#cb6c36;fill-rule:evenodd;stroke:#1b1918;stroke-width:1.00010002;stroke-linecap:butt;stroke-linejoin:miter;stroke-dasharray:none"
             d="m 713.6307,469.8083 31.7745,2.6045 11.4596,22.3984 -18.7521,55.2145 6.7781,8.0939 -6.7273,34.514 -15.5831,79.9483 -12.6103,-113.4923 5.2233,-6.4594 -13.0223,-53.131 z" />
        </g>
        <path
           inkscape:connector-curvature="0"
           id="path146"
           style="fill:#e30016;fill-rule:evenodd;stroke:#1b1918;stroke-width:1.00010002;stroke-linecap:butt;stroke-linejoin:miter;stroke-dasharray:none"
           d="m 781.3467,491.6858 -15.6268,36.9833 -16.6685,0 7.8134,-33.8579 -11.4596,-22.3984 -31.7745,-2.6045 -11.4596,29.6909 2.4627,35.1946" />
        <g
           id="Layer1005">
          <path
             inkscape:connector-curvature="0"
             id="path148"
             style="fill:#102a83;fill-rule:evenodd;stroke:#1b1918;stroke-width:1.00010002;stroke-linecap:butt;stroke-linejoin:miter;stroke-dasharray:none"
             d="m 677.9595,540.6592 -32.0107,36.8608 20.3705,26.1905 10.6702,76.6315 -19.4004,59.2191 127.368,0 -13.8757,-50.4889 25.2205,-111.5522 8.7302,-5.8201 -19.4004,-36.8608 -40.7409,23.2805 -22.3104,114.4623 -12.6103,-113.4923 z" />
          <path
             inkscape:connector-curvature="0"
             id="path150"
             style="fill:#102a83;fill-rule:evenodd;stroke:#1b1918;stroke-width:1.00010002;stroke-linecap:butt;stroke-linejoin:miter;stroke-dasharray:none"
             d="m 702.3039,498.516 8.8121,35.9517 -13.5002,0.5108 -22.9192,-23.4402 2.0836,-32.2953 23.4401,-48.9639 47.4012,-5.7298 33.858,39.0669 0,27.0864 -15.6268,36.9834 -20.0618,-0.2686 11.2066,-33.5894 -11.4596,-22.3984 -31.7744,-2.6044 z" />
        </g>
        <g
           id="Layer1006">
          <path
             inkscape:connector-curvature="0"
             id="path153"
             style="fill:#ffec00;fill-rule:evenodd;stroke:#1b1918;stroke-width:1.00010002;stroke-linecap:butt;stroke-linejoin:miter;stroke-dasharray:none"
             d="m 796.9711,296.7998 c -11.5853,-5.5098 -43.6949,6.3394 -52.6405,15.6449 -13.4184,13.9584 -28.5252,36.7106 -20.5166,59.2451 1.657,4.6624 7.4669,1.3064 12.1595,-0.2624 20.73,-6.9297 12.9595,-4.1681 20.73,-6.9297 25.2542,-8.9752 50.5464,-42.4694 40.2676,-67.6979 z" />
          <path
             inkscape:connector-curvature="0"
             id="path155"
             style="fill:#f07c00;fill-rule:evenodd;stroke:#323b34;stroke-width:1.00010002;stroke-linecap:butt;stroke-linejoin:miter;stroke-dasharray:none"
             d="m 779.5389,305.6207 c -25.268,6.0626 -43.1863,16.0817 -49.0533,45.4396" />
          <path
             inkscape:connector-curvature="0"
             id="path157"
             style="fill:none;stroke:#1b1918;stroke-width:1.00010002;stroke-linecap:butt;stroke-linejoin:miter;stroke-dasharray:none"
             d="m 788.9963,317.9061 c -9.3984,24.2258 -21.7313,40.6376 -51.611,42.5121" />
        </g>
        <path
           inkscape:connector-curvature="0"
           id="path160"
           style="fill:#f07c00;fill-rule:evenodd;stroke:#1b1918;stroke-width:1.00010002;stroke-linecap:butt;stroke-linejoin:miter;stroke-dasharray:none"
           d="m 650.6028,426.5743 164.6019,-2.6045 25.0028,-60.9444 -208.8777,1.0418 z" />
        <g
           id="Layer1007">
          <path
             inkscape:connector-curvature="0"
             id="path162"
             style="fill:none;stroke:#1b1918;stroke-width:1.00010002;stroke-linecap:butt;stroke-linejoin:miter;stroke-dasharray:none"
             d="m 668.834,372.9224 128.1395,15.1059" />
          <path
             inkscape:connector-curvature="0"
             id="path164"
             style="fill:none;stroke:#1b1918;stroke-width:1.00010002;stroke-linecap:butt;stroke-linejoin:miter;stroke-dasharray:none"
             d="m 673.0011,397.9252 122.4097,2.6045" />
          <path
             inkscape:connector-curvature="0"
             id="path166"
             style="fill:none;stroke:#1b1918;stroke-width:1.00010002;stroke-linecap:butt;stroke-linejoin:miter;stroke-dasharray:none"
             d="m 792.2854,374.4851 11.9806,37.5042" />
          <path
             inkscape:connector-curvature="0"
             id="path168"
             style="fill:none;stroke:#1b1918;stroke-width:1.00010002;stroke-linecap:butt;stroke-linejoin:miter;stroke-dasharray:none"
             d="m 749.0514,372.9224 8.8552,35.4207" />
          <path
             inkscape:connector-curvature="0"
             id="path170"
             style="fill:none;stroke:#1b1918;stroke-width:1.00010002;stroke-linecap:butt;stroke-linejoin:miter;stroke-dasharray:none"
             d="m 703.2129,371.3597 11.4596,34.3789" />
          <path
             inkscape:connector-curvature="0"
             id="path172"
             style="fill:none;stroke:#1b1918;stroke-width:1.00010002;stroke-linecap:butt;stroke-linejoin:miter;stroke-dasharray:none"
             d="m 665.1878,368.2344 16.1476,44.7967" />
        </g>
      </g>
    </g>
  </g>
</svg>
