<svg xmlns="http://www.w3.org/2000/svg" xmlns:xlink="http://www.w3.org/1999/xlink" viewBox="0 0 625.87 177.73"><defs><style>.cls-1{isolation:isolate;}.cls-2{fill:#706f6f;}.cls-11,.cls-3{opacity:0.5;}.cls-11,.cls-13,.cls-3{mix-blend-mode:multiply;}.cls-4{fill:url(#Gradiente_sem_nome_2);}.cls-5{fill:url(#Gradiente_sem_nome_2-2);}.cls-6{fill:url(#Gradiente_sem_nome_2-3);}.cls-7{fill:url(#Gradiente_sem_nome_2-4);}.cls-8{fill:url(#Gradiente_sem_nome_2-5);}.cls-9{fill:url(#Gradiente_sem_nome_2-6);}.cls-10{fill:#2fac66;}.cls-11{fill:url(#Gradiente_sem_nome_2-7);}.cls-12{fill:#f9c000;}.cls-13{opacity:0.3;}.cls-14{fill:url(#Gradiente_sem_nome_49);}</style><linearGradient id="Gradiente_sem_nome_2" x1="334.09" y1="354.24" x2="334.09" y2="286.55" gradientUnits="userSpaceOnUse"><stop offset="0" stop-color="#fff"/><stop offset="1"/></linearGradient><linearGradient id="Gradiente_sem_nome_2-2" x1="404.48" y1="354.2" x2="404.48" y2="286.51" xlink:href="#Gradiente_sem_nome_2"/><linearGradient id="Gradiente_sem_nome_2-3" x1="373.35" y1="144.39" x2="373.35" y2="76.7" xlink:href="#Gradiente_sem_nome_2"/><linearGradient id="Gradiente_sem_nome_2-4" x1="554.97" y1="354.24" x2="554.97" y2="286.55" xlink:href="#Gradiente_sem_nome_2"/><linearGradient id="Gradiente_sem_nome_2-5" x1="629.35" y1="354.2" x2="629.35" y2="286.51" xlink:href="#Gradiente_sem_nome_2"/><linearGradient id="Gradiente_sem_nome_2-6" x1="598.22" y1="144.39" x2="598.22" y2="76.7" xlink:href="#Gradiente_sem_nome_2"/><linearGradient id="Gradiente_sem_nome_2-7" x1="237.32" y1="372.5" x2="123.04" y2="236.56" xlink:href="#Gradiente_sem_nome_2"/><linearGradient id="Gradiente_sem_nome_49" x1="173.85" y1="359.28" x2="173.85" y2="207.28" gradientUnits="userSpaceOnUse"><stop offset="0" stop-color="#fff"/><stop offset="1" stop-color="#ea5b0c"/></linearGradient></defs><title>logo-congresso-rondon</title><g class="cls-1"><g id="Camada_1" data-name="Camada 1"><g id="_Grupo_" data-name="&lt;Grupo&gt;"><g id="_Grupo_2" data-name="&lt;Grupo&gt;"><g id="_Grupo_3" data-name="&lt;Grupo&gt;"><g id="_Grupo_4" data-name="&lt;Grupo&gt;"><path id="_Caminho_composto_" data-name="&lt;Caminho composto&gt;" class="cls-2" d="M355.58,354.24,334.07,326H311.64v28.27h-4.26V287.13H335c8.61,0,15.14,2.17,19.42,6.44a17.67,17.67,0,0,1,5,12.84v.19c0,10.52-7.69,17.71-20.23,19.1l21.73,28.54ZM334,321.89c13.23,0,21.13-5.68,21.13-15.2v-.19a13.34,13.34,0,0,0-5.23-11.18c-3.51-2.69-8.72-4.12-15.07-4.12H311.64v30.68Z" transform="translate(-107.23 -209.85)"/></g><g id="_Grupo_5" data-name="&lt;Grupo&gt;"><path id="_Caminho_composto_2" data-name="&lt;Caminho composto&gt;" class="cls-2" d="M404.52,355.35a32.41,32.41,0,0,1-24.32-10.45,35.6,35.6,0,0,1-9-24.12v-.19a35.6,35.6,0,0,1,9-24.12,33.51,33.51,0,0,1,48.64,0,35.6,35.6,0,0,1,9,24.12v.19a35.6,35.6,0,0,1-9,24.12A32.41,32.41,0,0,1,404.52,355.35Zm-.09-65.26a28,28,0,0,0-21.05,9.14,31.47,31.47,0,0,0-8,21.27v.19c0,15,10.92,30.59,29.2,30.59a28,28,0,0,0,21.05-9.14,31.47,31.47,0,0,0,8-21.27v-.19C433.62,305.65,422.7,290.09,404.42,290.09Z" transform="translate(-107.23 -209.85)"/></g><g id="_Grupo_6" data-name="&lt;Grupo&gt;"><polygon id="_Caminho_" data-name="&lt;Caminho&gt;" class="cls-2" points="397.6 144.39 349.93 84.89 349.93 144.39 345.76 144.39 345.76 77.28 349.17 77.28 396.83 136.78 396.83 77.28 401 77.28 401 144.39 397.6 144.39"/></g><g id="_Grupo_7" data-name="&lt;Grupo&gt;"><path id="_Caminho_composto_3" data-name="&lt;Caminho composto&gt;" class="cls-2" d="M526.22,354.24V287.13h22c10,0,19.16,3.42,25.66,9.64a32.57,32.57,0,0,1,9.94,23.83v.19a32.57,32.57,0,0,1-9.94,23.83c-6.5,6.21-15.61,9.63-25.66,9.63Zm22.06-4.08c8.83,0,16.84-3,22.56-8.53a28.48,28.48,0,0,0,8.67-20.76v-.19a28.66,28.66,0,0,0-8.73-20.89c-5.76-5.54-13.82-8.59-22.69-8.59H530.48v59Z" transform="translate(-107.23 -209.85)"/></g><g id="_Grupo_8" data-name="&lt;Grupo&gt;"><path id="_Caminho_composto_4" data-name="&lt;Caminho composto&gt;" class="cls-2" d="M629.38,355.35a32.41,32.41,0,0,1-24.32-10.45,35.6,35.6,0,0,1-9-24.12v-.19a35.6,35.6,0,0,1,9-24.12,33.51,33.51,0,0,1,48.64,0,35.6,35.6,0,0,1,9,24.12v.19a35.6,35.6,0,0,1-9,24.12A32.41,32.41,0,0,1,629.38,355.35Zm-.09-65.26a28,28,0,0,0-21.05,9.14,31.47,31.47,0,0,0-8,21.27v.19c0,15,10.92,30.59,29.2,30.59a28,28,0,0,0,21.05-9.14,31.47,31.47,0,0,0,8-21.27v-.19C658.49,305.65,647.57,290.09,629.29,290.09Z" transform="translate(-107.23 -209.85)"/></g><g id="_Grupo_9" data-name="&lt;Grupo&gt;"><polygon id="_Caminho_2" data-name="&lt;Caminho&gt;" class="cls-2" points="622.46 144.39 574.8 84.89 574.8 144.39 570.63 144.39 570.63 77.28 574.03 77.28 621.7 136.78 621.7 77.28 625.87 77.28 625.87 144.39 622.46 144.39"/></g></g><g id="_Grupo_10" data-name="&lt;Grupo&gt;" class="cls-3"><g id="_Grupo_11" data-name="&lt;Grupo&gt;"><path id="_Caminho_composto_5" data-name="&lt;Caminho composto&gt;" class="cls-4" d="M355.55,354.24,334,326H311.61v28.27h-4.26V287.13H335c8.61,0,15.14,2.17,19.42,6.44a17.67,17.67,0,0,1,5,12.84v.19c0,10.52-7.69,17.71-20.23,19.1l21.73,28.54Zm-21.6-32.35c13.23,0,21.13-5.68,21.13-15.2v-.19a13.34,13.34,0,0,0-5.23-11.18c-3.51-2.69-8.72-4.12-15.07-4.12H311.61v30.68Z" transform="translate(-107.23 -209.85)"/></g><g id="_Grupo_12" data-name="&lt;Grupo&gt;"><path id="_Caminho_composto_6" data-name="&lt;Caminho composto&gt;" class="cls-5" d="M404.48,355.35a32.41,32.41,0,0,1-24.32-10.45,35.6,35.6,0,0,1-9-24.12v-.19a35.6,35.6,0,0,1,9-24.12,33.51,33.51,0,0,1,48.64,0,35.6,35.6,0,0,1,9,24.12v.19a35.6,35.6,0,0,1-9,24.12A32.41,32.41,0,0,1,404.48,355.35Zm-.09-65.26a28,28,0,0,0-21.05,9.14,31.47,31.47,0,0,0-8,21.27v.19c0,15,10.92,30.59,29.2,30.59a28,28,0,0,0,21.05-9.14,31.47,31.47,0,0,0,8-21.27v-.19C433.59,305.65,422.67,290.09,404.39,290.09Z" transform="translate(-107.23 -209.85)"/></g><g id="_Grupo_13" data-name="&lt;Grupo&gt;"><polygon id="_Caminho_3" data-name="&lt;Caminho&gt;" class="cls-6" points="397.56 144.39 349.9 84.89 349.9 144.39 345.73 144.39 345.73 77.28 349.13 77.28 396.8 136.78 396.8 77.28 400.97 77.28 400.97 144.39 397.56 144.39"/></g><g id="_Grupo_14" data-name="&lt;Grupo&gt;"><path id="_Caminho_composto_7" data-name="&lt;Caminho composto&gt;" class="cls-7" d="M526.19,354.24V287.13h22c10,0,19.16,3.42,25.66,9.64a32.57,32.57,0,0,1,9.94,23.83v.19a32.57,32.57,0,0,1-9.94,23.83c-6.5,6.21-15.61,9.63-25.66,9.63Zm22.06-4.08c8.83,0,16.84-3,22.56-8.53a28.48,28.48,0,0,0,8.67-20.76v-.19a28.66,28.66,0,0,0-8.73-20.89c-5.76-5.54-13.82-8.59-22.69-8.59H530.45v59Z" transform="translate(-107.23 -209.85)"/></g><g id="_Grupo_15" data-name="&lt;Grupo&gt;"><path id="_Caminho_composto_8" data-name="&lt;Caminho composto&gt;" class="cls-8" d="M629.35,355.35A32.41,32.41,0,0,1,605,344.89a35.6,35.6,0,0,1-9-24.12v-.19a35.6,35.6,0,0,1,9-24.12,33.51,33.51,0,0,1,48.64,0,35.6,35.6,0,0,1,9,24.12v.19a35.6,35.6,0,0,1-9,24.12A32.41,32.41,0,0,1,629.35,355.35Zm-.09-65.26a28,28,0,0,0-21.05,9.14,31.47,31.47,0,0,0-8,21.27v.19c0,15,10.92,30.59,29.2,30.59a28,28,0,0,0,21.05-9.14,31.47,31.47,0,0,0,8-21.27v-.19C658.46,305.65,647.54,290.09,629.26,290.09Z" transform="translate(-107.23 -209.85)"/></g><g id="_Grupo_16" data-name="&lt;Grupo&gt;"><polygon id="_Caminho_4" data-name="&lt;Caminho&gt;" class="cls-9" points="622.43 144.39 574.77 84.89 574.77 144.39 570.6 144.39 570.6 77.28 574 77.28 621.67 136.78 621.67 77.28 625.84 77.28 625.84 144.39 622.43 144.39"/></g></g><g id="_Grupo_17" data-name="&lt;Grupo&gt;"><g id="_Grupo_18" data-name="&lt;Grupo&gt;"><path id="_Caminho_composto_9" data-name="&lt;Caminho composto&gt;" class="cls-2" d="M313.35,259.59c3.87,0,5.62,1.51,5.62,4.82s-1.75,4.82-5.62,4.82h-3.29v6.16a.32.32,0,0,1-.37.37h-.85a.32.32,0,0,1-.37-.37V260a.32.32,0,0,1,.37-.37Zm-3.29,8.25h3.26c2.8,0,4-1.07,4-3.43s-1.24-3.43-4-3.43h-3.26Z" transform="translate(-107.23 -209.85)"/><path id="_Caminho_composto_10" data-name="&lt;Caminho composto&gt;" class="cls-2" d="M329.05,269.13h-3.38v6.26a.32.32,0,0,1-.37.37h-.85a.32.32,0,0,1-.37-.37V260a.32.32,0,0,1,.37-.37h4.36c3.87,0,5.65,1.51,5.65,4.75,0,2.65-1.27,4.19-3.77,4.65l4,6.33c.17.27,0,.44-.24.44h-1.07a.46.46,0,0,1-.44-.24Zm-3.38-1.39h3.14c2.8,0,4-1,4-3.38s-1.24-3.38-4-3.38h-3.14Z" transform="translate(-107.23 -209.85)"/><path id="_Caminho_composto_11" data-name="&lt;Caminho composto&gt;" class="cls-2" d="M339.64,265.14c0-3.82,2-5.84,5.67-5.84s5.7,2,5.7,5.84v5.06c0,3.82-2,5.84-5.7,5.84s-5.67-2-5.67-5.84Zm1.58,4.79c0,3.14,1.36,4.72,4.09,4.72s4.11-1.58,4.11-4.72v-4.53c0-3.14-1.36-4.72-4.11-4.72s-4.09,1.58-4.09,4.72Z" transform="translate(-107.23 -209.85)"/><path id="_Caminho_composto_12" data-name="&lt;Caminho composto&gt;" class="cls-2" d="M365.7,270.4c0,3.7-1.83,5.65-5.26,5.65a5.35,5.35,0,0,1-5-2.68.33.33,0,0,1,.1-.49l.58-.44c.22-.17.39-.12.51.12a4.06,4.06,0,0,0,3.7,2.09c2.51,0,3.75-1.51,3.75-4.5V260a.32.32,0,0,1,.37-.37h.85a.32.32,0,0,1,.37.37Z" transform="translate(-107.23 -209.85)"/><path id="_Caminho_composto_13" data-name="&lt;Caminho composto&gt;" class="cls-2" d="M373.34,266.89h6.91a.32.32,0,0,1,.37.37v.66a.32.32,0,0,1-.37.37h-6.91v6.08h8a.32.32,0,0,1,.37.37v.66a.32.32,0,0,1-.37.37h-9.2a.32.32,0,0,1-.37-.37V260a.32.32,0,0,1,.37-.37h9.2a.32.32,0,0,1,.37.37v.66a.32.32,0,0,1-.37.37h-8Z" transform="translate(-107.23 -209.85)"/><path id="_Caminho_composto_14" data-name="&lt;Caminho composto&gt;" class="cls-2" d="M391.94,261v14.41a.32.32,0,0,1-.37.37h-.85a.32.32,0,0,1-.37-.37V261h-4.28a.32.32,0,0,1-.36-.37V260a.32.32,0,0,1,.36-.37H396.2a.32.32,0,0,1,.37.37v.66a.32.32,0,0,1-.37.37Z" transform="translate(-107.23 -209.85)"/><path id="_Caminho_composto_15" data-name="&lt;Caminho composto&gt;" class="cls-2" d="M400.5,265.14c0-3.82,2-5.84,5.67-5.84s5.7,2,5.7,5.84v5.06c0,3.82-2,5.84-5.7,5.84s-5.67-2-5.67-5.84Zm1.58,4.79c0,3.14,1.36,4.72,4.09,4.72s4.11-1.58,4.11-4.72v-4.53c0-3.14-1.36-4.72-4.11-4.72s-4.09,1.58-4.09,4.72Z" transform="translate(-107.23 -209.85)"/></g></g></g><g id="_Grupo_19" data-name="&lt;Grupo&gt;"><g id="_Grupo_20" data-name="&lt;Grupo&gt;"><path id="_Caminho_5" data-name="&lt;Caminho&gt;" class="cls-10" d="M251.37,365.62h-41.3a.43.43,0,0,1-.34-.16l-102.5-123h42.43L251.71,364.91A.43.43,0,0,1,251.37,365.62Z" transform="translate(-107.23 -209.85)"/><path id="_Caminho_6" data-name="&lt;Caminho&gt;" class="cls-11" d="M251.37,365.62h-41.3a.43.43,0,0,1-.34-.16l-102.5-123h42.43L251.71,364.91A.43.43,0,0,1,251.37,365.62Z" transform="translate(-107.23 -209.85)"/></g><g id="_Grupo_21" data-name="&lt;Grupo&gt;"><path id="_Caminho_7" data-name="&lt;Caminho&gt;" class="cls-12" d="M240.39,256.79a47,47,0,0,1-47.09,46.68H143.25v50.34a.43.43,0,0,1-.43.43H107.67a.43.43,0,0,1-.43-.43V271.24a.43.43,0,0,1,.43-.43h86.39a14.18,14.18,0,0,0-.45-28.35H107.24V209.85h86.37A46.77,46.77,0,0,1,240.39,256.79Z" transform="translate(-107.23 -209.85)"/></g><g id="_Grupo_22" data-name="&lt;Grupo&gt;" class="cls-13"><path id="_Caminho_8" data-name="&lt;Caminho&gt;" class="cls-14" d="M240.43,256.79a47,47,0,0,1-47.09,46.68H143.29v50.34a.43.43,0,0,1-.43.43H107.71a.43.43,0,0,1-.43-.43V271.24a.43.43,0,0,1,.43-.43H194.1a14.18,14.18,0,0,0-.45-28.35H107.28V209.85h86.37A46.77,46.77,0,0,1,240.43,256.79Z" transform="translate(-107.23 -209.85)"/></g></g><g id="_Grupo_23" data-name="&lt;Grupo&gt;"><path id="_Caminho_composto_16" data-name="&lt;Caminho composto&gt;" class="cls-2" d="M307.34,364.58a.73.73,0,1,1,1.46,0v17.67h11a.67.67,0,1,1,0,1.35h-11.7a.74.74,0,0,1-.73-.73Z" transform="translate(-107.23 -209.85)"/><path id="_Caminho_composto_17" data-name="&lt;Caminho composto&gt;" class="cls-2" d="M325.83,364.38a.83.83,0,0,1,.84-.84.85.85,0,0,1,.87.84v.48a.85.85,0,0,1-.87.84.83.83,0,0,1-.84-.84Zm.17,5.5a.69.69,0,1,1,1.37,0V383a.65.65,0,0,1-.67.7.68.68,0,0,1-.7-.7Z" transform="translate(-107.23 -209.85)"/><path id="_Caminho_composto_18" data-name="&lt;Caminho composto&gt;" class="cls-2" d="M340.84,383.93,339.32,387c-.17.34-.31.56-.73.56s-1-.36-1-.67a.81.81,0,0,1,.14-.42l1.77-2.61a7.39,7.39,0,0,1-6.34-7.38v-.06A7.43,7.43,0,0,1,340.5,369a7.51,7.51,0,0,1,5.39,2.27.74.74,0,0,1,.2.5.69.69,0,0,1-.7.7.71.71,0,0,1-.48-.17,6.22,6.22,0,0,0-4.43-2,5.91,5.91,0,0,0-5.78,6.14v.06a6,6,0,0,0,5.89,6.2,6.31,6.31,0,0,0,4.49-2,.63.63,0,0,1,.45-.22.72.72,0,0,1,.67.67.62.62,0,0,1-.17.42A7.43,7.43,0,0,1,340.84,383.93Z" transform="translate(-107.23 -209.85)"/><path id="_Caminho_composto_19" data-name="&lt;Caminho composto&gt;" class="cls-2" d="M350.43,379.45v-.06c0-3,2.55-4.66,6.25-4.66a17.2,17.2,0,0,1,4.74.62v-.62c0-2.89-1.77-4.38-4.71-4.38a9.24,9.24,0,0,0-4.07,1,.74.74,0,0,1-.31.08.67.67,0,0,1-.65-.65.7.7,0,0,1,.39-.62,11.08,11.08,0,0,1,4.71-1.07,6.18,6.18,0,0,1,4.52,1.57,5.43,5.43,0,0,1,1.46,4V383a.67.67,0,1,1-1.35,0v-1.8a6.5,6.5,0,0,1-5.47,2.72C353.29,383.93,350.43,382.42,350.43,379.45Zm11-1.21v-1.63a19,19,0,0,0-4.85-.65c-3,0-4.71,1.35-4.71,3.34v.06c0,2.08,2,3.28,4.15,3.28C359,382.64,361.45,380.85,361.45,378.24Zm-7.88-11a.48.48,0,0,1-.5-.48,1.4,1.4,0,0,1,.06-.34c.53-1.63,1.21-2.1,2.22-2.1s2.64,1.15,3.59,1.15c.62,0,.93-.31,1.26-1.07a.62.62,0,0,1,.5-.39.48.48,0,0,1,.5.48,1.4,1.4,0,0,1-.06.34c-.53,1.63-1.21,2.1-2.22,2.1s-2.64-1.15-3.59-1.15c-.62,0-.93.31-1.26,1.07A.58.58,0,0,1,353.57,367.22Z" transform="translate(-107.23 -209.85)"/><path id="_Caminho_composto_20" data-name="&lt;Caminho composto&gt;" class="cls-2" d="M368.13,376.5v-.06a7.39,7.39,0,0,1,7.38-7.49,7.31,7.31,0,0,1,7.32,7.43v.06a7.39,7.39,0,0,1-7.38,7.49A7.31,7.31,0,0,1,368.13,376.5Zm13.21,0v-.06a6,6,0,0,0-5.89-6.2,5.9,5.9,0,0,0-5.83,6.14v.06a6,6,0,0,0,5.89,6.2A5.9,5.9,0,0,0,381.34,376.5Z" transform="translate(-107.23 -209.85)"/><path id="_Caminho_composto_21" data-name="&lt;Caminho composto&gt;" class="cls-2" d="M411.58,383a.66.66,0,0,1-.67.7.68.68,0,0,1-.7-.7V380.4a6.91,6.91,0,0,1-5.89,3.53,7.1,7.1,0,0,1-7-7.43v-.06a7.16,7.16,0,0,1,7-7.49,6.88,6.88,0,0,1,5.89,3.42v-8.67a.66.66,0,0,1,.67-.7.68.68,0,0,1,.7.7Zm-12.73-6.62v.06c0,3.76,2.61,6.17,5.61,6.17a6,6,0,0,0,5.83-6.14v-.06a6,6,0,0,0-5.83-6.14C401.34,370.27,398.85,372.55,398.85,376.39Z" transform="translate(-107.23 -209.85)"/><path id="_Caminho_composto_22" data-name="&lt;Caminho composto&gt;" class="cls-2" d="M424.23,383.93a7.11,7.11,0,0,1-7-7.46v-.06c0-4.15,2.92-7.46,6.79-7.46s6.56,3.31,6.56,7.4a.7.7,0,0,1-.67.65H418.68a5.67,5.67,0,0,0,5.61,5.64,6.33,6.33,0,0,0,4.63-2,.61.61,0,0,1,.45-.2.66.66,0,0,1,.67.65.67.67,0,0,1-.22.48A7.27,7.27,0,0,1,424.23,383.93Zm4.85-8.16c-.2-2.89-1.85-5.55-5.13-5.55-2.83,0-5,2.38-5.27,5.55Z" transform="translate(-107.23 -209.85)"/><path id="_Caminho_composto_23" data-name="&lt;Caminho composto&gt;" class="cls-2" d="M451.39,383.79h-.06a.83.83,0,0,1-.79-.59l-5.75-12.9a1.17,1.17,0,0,1-.11-.42.7.7,0,0,1,.73-.7c.42,0,.59.25.73.56l5.22,12.31,5.3-12.37a.7.7,0,0,1,1.37.2.87.87,0,0,1-.08.36l-5.78,13A.83.83,0,0,1,451.39,383.79Z" transform="translate(-107.23 -209.85)"/><path id="_Caminho_composto_24" data-name="&lt;Caminho composto&gt;" class="cls-2" d="M463.56,364.38a.83.83,0,0,1,.84-.84.85.85,0,0,1,.87.84v.48a.85.85,0,0,1-.87.84.83.83,0,0,1-.84-.84Zm.17,5.5a.69.69,0,1,1,1.37,0V383a.65.65,0,0,1-.67.7.68.68,0,0,1-.7-.7Z" transform="translate(-107.23 -209.85)"/><path id="_Caminho_composto_25" data-name="&lt;Caminho composto&gt;" class="cls-2" d="M485.22,383a.66.66,0,0,1-.67.7.68.68,0,0,1-.7-.7V380.4a6.91,6.91,0,0,1-5.89,3.53,7.1,7.1,0,0,1-7-7.43v-.06a7.16,7.16,0,0,1,7-7.49,6.88,6.88,0,0,1,5.89,3.42v-8.67a.66.66,0,0,1,.67-.7.68.68,0,0,1,.7.7Zm-12.73-6.62v.06c0,3.76,2.61,6.17,5.61,6.17a6,6,0,0,0,5.83-6.14v-.06a6,6,0,0,0-5.83-6.14C475,370.27,472.48,372.55,472.48,376.39Z" transform="translate(-107.23 -209.85)"/><path id="_Caminho_composto_26" data-name="&lt;Caminho composto&gt;" class="cls-2" d="M490.66,379.45v-.06c0-3,2.55-4.66,6.25-4.66a17.2,17.2,0,0,1,4.74.62v-.62c0-2.89-1.77-4.38-4.71-4.38a9.24,9.24,0,0,0-4.07,1,.74.74,0,0,1-.31.08.67.67,0,0,1-.65-.65.7.7,0,0,1,.39-.62,11.08,11.08,0,0,1,4.71-1.07,6.18,6.18,0,0,1,4.52,1.57,5.43,5.43,0,0,1,1.46,4V383a.67.67,0,1,1-1.35,0v-1.8a6.5,6.5,0,0,1-5.47,2.72C493.52,383.93,490.66,382.42,490.66,379.45Zm11-1.21v-1.63a19,19,0,0,0-4.85-.65c-3,0-4.71,1.35-4.71,3.34v.06c0,2.08,2,3.28,4.15,3.28C499.19,382.64,501.68,380.85,501.68,378.24Z" transform="translate(-107.23 -209.85)"/><path id="_Caminho_composto_27" data-name="&lt;Caminho composto&gt;" class="cls-2" d="M525.19,383.93a7.11,7.11,0,0,1-7-7.46v-.06c0-4.15,2.92-7.46,6.79-7.46s6.56,3.31,6.56,7.4a.7.7,0,0,1-.67.65H519.64a5.67,5.67,0,0,0,5.61,5.64,6.33,6.33,0,0,0,4.63-2,.61.61,0,0,1,.45-.2.66.66,0,0,1,.67.65.67.67,0,0,1-.22.48A7.27,7.27,0,0,1,525.19,383.93Zm4.85-8.16c-.2-2.89-1.85-5.55-5.13-5.55-2.83,0-5,2.38-5.27,5.55Z" transform="translate(-107.23 -209.85)"/><path id="_Caminho_composto_28" data-name="&lt;Caminho composto&gt;" class="cls-2" d="M560.06,383a.66.66,0,0,1-.67.7.68.68,0,0,1-.7-.7V380.4a6.91,6.91,0,0,1-5.89,3.53,7.1,7.1,0,0,1-7-7.43v-.06a7.16,7.16,0,0,1,7-7.49,6.88,6.88,0,0,1,5.89,3.42v-8.67a.66.66,0,0,1,.67-.7.68.68,0,0,1,.7.7Zm-12.73-6.62v.06c0,3.76,2.61,6.17,5.61,6.17a6,6,0,0,0,5.83-6.14v-.06a6,6,0,0,0-5.83-6.14C549.82,370.27,547.32,372.55,547.32,376.39Z" transform="translate(-107.23 -209.85)"/><path id="_Caminho_composto_29" data-name="&lt;Caminho composto&gt;" class="cls-2" d="M572.71,383.93a7.11,7.11,0,0,1-7-7.46v-.06c0-4.15,2.92-7.46,6.79-7.46s6.56,3.31,6.56,7.4a.7.7,0,0,1-.67.65H567.16a5.67,5.67,0,0,0,5.61,5.64,6.33,6.33,0,0,0,4.63-2,.61.61,0,0,1,.45-.2.66.66,0,0,1,.67.65.67.67,0,0,1-.22.48A7.27,7.27,0,0,1,572.71,383.93Zm4.85-8.16c-.2-2.89-1.85-5.55-5.13-5.55-2.83,0-5,2.38-5.27,5.55Z" transform="translate(-107.23 -209.85)"/><path id="_Caminho_composto_30" data-name="&lt;Caminho composto&gt;" class="cls-2" d="M593.3,376.5v-.06a7.43,7.43,0,0,1,7.29-7.49,7.51,7.51,0,0,1,5.39,2.27.74.74,0,0,1,.2.5.69.69,0,0,1-.7.7.71.71,0,0,1-.48-.17,6.22,6.22,0,0,0-4.43-2,5.91,5.91,0,0,0-5.78,6.14v.06a6,6,0,0,0,5.89,6.2,6.31,6.31,0,0,0,4.49-2,.63.63,0,0,1,.45-.22.72.72,0,0,1,.67.67.62.62,0,0,1-.17.42,7.33,7.33,0,0,1-12.82-5Z" transform="translate(-107.23 -209.85)"/><path id="_Caminho_composto_31" data-name="&lt;Caminho composto&gt;" class="cls-2" d="M611.73,364.38a.83.83,0,0,1,.84-.84.85.85,0,0,1,.87.84v.48a.85.85,0,0,1-.87.84.83.83,0,0,1-.84-.84Zm.17,5.5a.69.69,0,1,1,1.37,0V383a.65.65,0,0,1-.67.7.68.68,0,0,1-.7-.7Z" transform="translate(-107.23 -209.85)"/><path id="_Caminho_composto_32" data-name="&lt;Caminho composto&gt;" class="cls-2" d="M633.39,383a.66.66,0,0,1-.67.7.68.68,0,0,1-.7-.7V380.4a6.91,6.91,0,0,1-5.89,3.53,7.1,7.1,0,0,1-7-7.43v-.06a7.16,7.16,0,0,1,7-7.49,6.88,6.88,0,0,1,5.89,3.42v-8.67a.66.66,0,0,1,.67-.7.68.68,0,0,1,.7.7Zm-12.73-6.62v.06c0,3.76,2.61,6.17,5.61,6.17a6,6,0,0,0,5.83-6.14v-.06a6,6,0,0,0-5.83-6.14C623.15,370.27,620.65,372.55,620.65,376.39Z" transform="translate(-107.23 -209.85)"/><path id="_Caminho_composto_33" data-name="&lt;Caminho composto&gt;" class="cls-2" d="M638.83,379.45v-.06c0-3,2.55-4.66,6.25-4.66a17.2,17.2,0,0,1,4.74.62v-.62c0-2.89-1.77-4.38-4.71-4.38a9.24,9.24,0,0,0-4.07,1,.74.74,0,0,1-.31.08.67.67,0,0,1-.65-.65.7.7,0,0,1,.39-.62,11.08,11.08,0,0,1,4.71-1.07,6.18,6.18,0,0,1,4.52,1.57,5.43,5.43,0,0,1,1.46,4V383a.67.67,0,1,1-1.35,0v-1.8a6.5,6.5,0,0,1-5.47,2.72C641.69,383.93,638.83,382.42,638.83,379.45Zm11-1.21v-1.63A19,19,0,0,0,645,376c-3,0-4.71,1.35-4.71,3.34v.06c0,2.08,2,3.28,4.15,3.28C647.36,382.64,649.85,380.85,649.85,378.24Z" transform="translate(-107.23 -209.85)"/><path id="_Caminho_composto_34" data-name="&lt;Caminho composto&gt;" class="cls-2" d="M670.81,383a.66.66,0,0,1-.67.7.68.68,0,0,1-.7-.7V380.4a6.91,6.91,0,0,1-5.89,3.53,7.1,7.1,0,0,1-7-7.43v-.06a7.16,7.16,0,0,1,7-7.49,6.88,6.88,0,0,1,5.89,3.42v-8.67a.66.66,0,0,1,.67-.7.68.68,0,0,1,.7.7Zm-12.73-6.62v.06c0,3.76,2.61,6.17,5.61,6.17a6,6,0,0,0,5.83-6.14v-.06a6,6,0,0,0-5.83-6.14C660.57,370.27,658.07,372.55,658.07,376.39Z" transform="translate(-107.23 -209.85)"/><path id="_Caminho_composto_35" data-name="&lt;Caminho composto&gt;" class="cls-2" d="M676.25,379.45v-.06c0-3,2.55-4.66,6.25-4.66a17.2,17.2,0,0,1,4.74.62v-.62c0-2.89-1.77-4.38-4.71-4.38a9.24,9.24,0,0,0-4.07,1,.74.74,0,0,1-.31.08.67.67,0,0,1-.65-.65.7.7,0,0,1,.39-.62,11.08,11.08,0,0,1,4.71-1.07,6.18,6.18,0,0,1,4.52,1.57,5.43,5.43,0,0,1,1.46,4V383a.67.67,0,1,1-1.35,0v-1.8a6.5,6.5,0,0,1-5.47,2.72C679.11,383.93,676.25,382.42,676.25,379.45Zm11-1.21v-1.63a19,19,0,0,0-4.85-.65c-3,0-4.71,1.35-4.71,3.34v.06c0,2.08,2,3.28,4.15,3.28C684.78,382.64,687.27,380.85,687.27,378.24Z" transform="translate(-107.23 -209.85)"/><path id="_Caminho_composto_36" data-name="&lt;Caminho composto&gt;" class="cls-2" d="M694.93,369.88a.67.67,0,0,1,.67-.7.68.68,0,0,1,.7.7V372a5.6,5.6,0,0,1,5.16-3c3.62,0,5.72,2.47,5.72,5.89V383a.66.66,0,0,1-.67.7.68.68,0,0,1-.7-.7V375.1c0-2.94-1.65-4.88-4.54-4.88a4.9,4.9,0,0,0-5,5.1V383a.66.66,0,0,1-.67.7.68.68,0,0,1-.7-.7Z" transform="translate(-107.23 -209.85)"/><path id="_Caminho_composto_37" data-name="&lt;Caminho composto&gt;" class="cls-2" d="M713.56,364.38a.83.83,0,0,1,.84-.84.85.85,0,0,1,.87.84v.48a.85.85,0,0,1-.87.84.83.83,0,0,1-.84-.84Zm.17,5.5a.69.69,0,1,1,1.37,0V383a.65.65,0,0,1-.67.7.68.68,0,0,1-.7-.7Z" transform="translate(-107.23 -209.85)"/><path id="_Caminho_composto_38" data-name="&lt;Caminho composto&gt;" class="cls-2" d="M720.74,379.45v-.06c0-3,2.55-4.66,6.25-4.66a17.2,17.2,0,0,1,4.74.62v-.62c0-2.89-1.77-4.38-4.71-4.38a9.24,9.24,0,0,0-4.07,1,.74.74,0,0,1-.31.08.67.67,0,0,1-.65-.65.7.7,0,0,1,.39-.62,11.08,11.08,0,0,1,4.71-1.07,6.18,6.18,0,0,1,4.52,1.57,5.43,5.43,0,0,1,1.46,4V383a.67.67,0,1,1-1.35,0v-1.8a6.5,6.5,0,0,1-5.47,2.72C723.6,383.93,720.74,382.42,720.74,379.45Zm11-1.21v-1.63a19,19,0,0,0-4.85-.65c-3,0-4.71,1.35-4.71,3.34v.06c0,2.08,2,3.28,4.15,3.28C729.27,382.64,731.76,380.85,731.76,378.24Z" transform="translate(-107.23 -209.85)"/></g></g></g></g></svg>