<?xml version="1.0" encoding="UTF-8" standalone="no"?>
<svg
   xmlns:dc="http://purl.org/dc/elements/1.1/"
   xmlns:cc="http://creativecommons.org/ns#"
   xmlns:rdf="http://www.w3.org/1999/02/22-rdf-syntax-ns#"
   xmlns:svg="http://www.w3.org/2000/svg"
   xmlns="http://www.w3.org/2000/svg"
   viewBox="0 0 315.24933 352.49332"
   height="352.49332"
   width="315.24933"
   xml:space="preserve"
   id="svg2"
   version="1.1"><metadata
     id="metadata8"><rdf:RDF><cc:Work
         rdf:about=""><dc:format>image/svg+xml</dc:format><dc:type
           rdf:resource="http://purl.org/dc/dcmitype/StillImage" /></cc:Work></rdf:RDF></metadata><defs
     id="defs6"><clipPath
       id="clipPath18"
       clipPathUnits="userSpaceOnUse"><path
         id="path16"
         d="M 0,264.37 H 236.437 V 0 H 0 Z" /></clipPath><linearGradient
       id="linearGradient170"
       spreadMethod="pad"
       gradientTransform="matrix(16.424597,-93.148521,-93.148521,-16.424597,110.12994,264.41608)"
       gradientUnits="userSpaceOnUse"
       y2="0"
       x2="1"
       y1="0"
       x1="0"><stop
         id="stop162"
         offset="0"
         style="stop-opacity:1;stop-color:#005d28" /><stop
         id="stop164"
         offset="0.24446305"
         style="stop-opacity:1;stop-color:#005d28" /><stop
         id="stop166"
         offset="0.929387"
         style="stop-opacity:1;stop-color:#fff200" /><stop
         id="stop168"
         offset="1"
         style="stop-opacity:1;stop-color:#fff200" /></linearGradient><linearGradient
       id="linearGradient190"
       spreadMethod="pad"
       gradientTransform="matrix(0,-112.82072,-112.82072,0,119.24424,237.16641)"
       gradientUnits="userSpaceOnUse"
       y2="0"
       x2="1"
       y1="0"
       x1="0"><stop
         id="stop186"
         offset="0"
         style="stop-opacity:1;stop-color:#f5f015" /><stop
         id="stop188"
         offset="1"
         style="stop-opacity:1;stop-color:#f79013" /></linearGradient><clipPath
       id="clipPath200"
       clipPathUnits="userSpaceOnUse"><path
         id="path198"
         d="m 26.167,126.989 c 0,-0.354 0.002,-0.711 0.006,-1.064 v 0 c 2.599,2.102 7.824,6.148 15.425,11.198 v 0 c 5.377,33.421 34.348,58.95 69.285,58.95 v 0 c 15.828,0 30.431,-5.242 42.173,-14.081 v 0 c 6.237,1.149 12.663,2.126 19.265,2.895 v 0 c -15.307,18.125 -37.683,29.551 -62.611,29.551 v 0 c -46.139,0 -83.543,-39.152 -83.543,-87.449" /></clipPath><radialGradient
       id="radialGradient216"
       spreadMethod="pad"
       gradientTransform="matrix(83.542847,0,0,-87.449471,109.70998,126.98885)"
       gradientUnits="userSpaceOnUse"
       r="1"
       cy="0"
       cx="0"
       fy="0"
       fx="0"><stop
         id="stop210"
         offset="0"
         style="stop-opacity:1;stop-color:#ffffff" /><stop
         id="stop212"
         offset="0.832432"
         style="stop-opacity:1;stop-color:#ffffff" /><stop
         id="stop214"
         offset="1"
         style="stop-opacity:0;stop-color:#ffffff" /></radialGradient><mask
       id="mask218"
       height="1"
       width="1"
       y="0"
       x="0"
       maskUnits="userSpaceOnUse"><g
         id="g228"><g
           id="g226"><g
             id="g224"><g
               id="g222"><path
                 id="path220"
                 style="fill:url(#radialGradient216);stroke:none"
                 d="M -32768,32767 H 32767 V -32768 H -32768 Z" /></g></g></g></g></mask><radialGradient
       id="radialGradient240"
       spreadMethod="pad"
       gradientTransform="matrix(83.542847,0,0,-87.449471,109.70998,126.98885)"
       gradientUnits="userSpaceOnUse"
       r="1"
       cy="0"
       cx="0"
       fy="0"
       fx="0"><stop
         id="stop234"
         offset="0"
         style="stop-opacity:1;stop-color:#fffbb3" /><stop
         id="stop236"
         offset="0.832432"
         style="stop-opacity:1;stop-color:#fffbb3" /><stop
         id="stop238"
         offset="1"
         style="stop-opacity:1;stop-color:#ffffff" /></radialGradient><linearGradient
       id="linearGradient260"
       spreadMethod="pad"
       gradientTransform="matrix(4.6156015,-52.756569,-52.756569,-4.6156015,94.235207,194.88878)"
       gradientUnits="userSpaceOnUse"
       y2="0"
       x2="1"
       y1="0"
       x1="0"><stop
         id="stop256"
         offset="0"
         style="stop-opacity:1;stop-color:#51aee5" /><stop
         id="stop258"
         offset="1"
         style="stop-opacity:1;stop-color:#213e70" /></linearGradient><clipPath
       id="clipPath270"
       clipPathUnits="userSpaceOnUse"><path
         id="path268"
         d="M 0,264.37 H 236.437 V 0 H 0 Z" /></clipPath><linearGradient
       id="linearGradient294"
       spreadMethod="pad"
       gradientTransform="matrix(0,-48.626991,-48.626991,0,119.24426,163.42061)"
       gradientUnits="userSpaceOnUse"
       y2="0"
       x2="1"
       y1="0"
       x1="0"><stop
         id="stop288"
         offset="0"
         style="stop-opacity:1;stop-color:#fff200" /><stop
         id="stop290"
         offset="0.851461"
         style="stop-opacity:1;stop-color:#00813c" /><stop
         id="stop292"
         offset="1"
         style="stop-opacity:1;stop-color:#00813c" /></linearGradient></defs><g
     transform="matrix(1.3333333,0,0,-1.3333333,0,352.49333)"
     id="g10"><g
       id="g12"><g
         clip-path="url(#clipPath18)"
         id="g14"><g
           transform="translate(31.0215,57.866)"
           id="g20"><path
             id="path22"
             style="fill:#004e20;fill-opacity:1;fill-rule:nonzero;stroke:none"
             d="m 0,0 v -13.802 c 2.664,0 5.33,0.058 7.678,0.058 6.852,0 8.248,3.935 8.248,6.844 0,2.851 -1.84,6.9 -8.628,6.9 z m 0,4.675 h 6.663 c 5.964,0 7.295,3.194 7.295,5.874 0,2.794 -1.205,5.873 -7.169,5.873 -1.777,0 -4.76,0 -6.789,0.057 z m 6.915,16.367 c 9.329,0 13.834,-3.879 13.834,-10.322 0,-3.594 -2.412,-6.729 -5.964,-7.984 4.313,-1.141 8.058,-5.074 8.058,-9.98 0,-6.329 -4.57,-11.119 -15.101,-11.119 -5.139,0 -9.264,0.115 -14.024,0.171 l -0.38,0.399 v 38.264 l 0.38,0.4 c 4.633,0.057 9.011,0.171 13.197,0.171" /></g><g
           transform="translate(65.5898,60.26)"
           id="g24"><path
             id="path26"
             style="fill:#004e20;fill-opacity:1;fill-rule:nonzero;stroke:none"
             d="m 0,0 c 2.474,0.058 5.266,0.115 7.043,0.115 6.219,0 7.742,3.534 7.742,6.843 0,3.478 -1.523,6.899 -7.742,6.899 -1.841,0 -4.886,0 -7.043,0.058 z m 13.642,-3.421 c 2.093,-0.685 3.617,-2.623 4.505,-4.848 l 2.792,-6.671 c 0.634,-1.54 1.395,-3.08 2.854,-4.107 -0.887,-1.196 -2.854,-1.881 -4.567,-1.881 -2.538,0 -3.426,1.255 -4.441,3.707 L 11.61,-9.522 C 10.533,-6.9 9.137,-4.848 5.202,-4.848 H 0 v -15.681 c -1.015,-0.171 -2.285,-0.228 -3.362,-0.228 -1.017,0 -2.348,0.057 -3.301,0.228 v 38.606 l 0.381,0.4 c 4.76,0.057 9.328,0.17 13.641,0.17 8.821,0 14.405,-4.106 14.405,-11.689 0,-5.248 -3.491,-9.068 -8.122,-10.379" /></g><g
           transform="translate(104.3486,54.1013)"
           id="g28"><path
             id="path30"
             style="fill:#004e20;fill-opacity:1;fill-rule:nonzero;stroke:none"
             d="M 0,0 C 1.017,0 2.73,0.057 3.236,0.057 H 9.581 C 10.025,0.057 11.738,0 12.755,0 L 9.835,8.269 C 8.694,11.576 7.361,15.568 6.473,18.589 H 6.156 C 5.522,16.024 4.38,12.431 3.681,10.321 Z m -1.713,-4.904 -3.362,-9.524 c -0.825,-0.171 -1.904,-0.228 -2.918,-0.228 -1.207,0 -2.412,0.173 -3.301,0.399 l -0.19,0.286 14.34,38.549 c 1.015,0.171 2.792,0.228 3.872,0.228 1.078,0 2.853,-0.057 3.806,-0.228 l 14.214,-38.549 c -0.953,-0.57 -2.476,-0.799 -3.935,-0.799 -2.093,0 -3.172,0.686 -3.997,3.193 l -2.347,6.673 c -1.079,0 -3.301,-0.057 -3.809,-0.057 H 1.968 c -0.509,0 -2.602,0.057 -3.681,0.057" /></g><g
           transform="translate(135.1172,47.9421)"
           id="g32"><path
             id="path34"
             style="fill:#004e20;fill-opacity:1;fill-rule:nonzero;stroke:none"
             d="m 0,0 c 3.681,-2.166 8.376,-3.878 12.753,-3.878 5.14,0 8.058,2.225 8.122,5.362 0,2.68 -2.094,4.732 -5.774,6.157 L 7.613,10.55 c -5.33,2.054 -8.692,5.018 -8.692,9.866 0,6.216 5.837,11.062 14.341,11.062 5.265,0 10.151,-1.482 13.451,-2.964 -0.064,-1.711 -1.079,-3.593 -2.476,-4.735 -3.299,1.484 -7.613,2.682 -10.849,2.682 -4.696,0 -7.614,-2.338 -7.614,-5.362 0,-2.509 2.158,-3.933 5.266,-5.132 l 7.361,-2.851 c 5.456,-2.052 9.517,-5.531 9.517,-10.607 0,-6.558 -5.076,-11.461 -15.545,-11.461 -5.268,0 -10.978,1.597 -15.229,4.277 0.19,1.767 1.459,3.65 2.856,4.675" /></g><g
           transform="translate(170.9199,78.6789)"
           id="g36"><path
             id="path38"
             style="fill:#004e20;fill-opacity:1;fill-rule:nonzero;stroke:none"
             d="M 0,0 C 0.952,0.171 2.348,0.229 3.362,0.229 4.379,0.229 5.71,0.171 6.727,0 v -38.948 c -1.017,-0.171 -2.348,-0.228 -3.365,-0.228 -1.014,0 -2.41,0.057 -3.362,0.228 z" /></g><g
           transform="translate(213.6924,44.9778)"
           id="g40"><path
             id="path42"
             style="fill:#004e20;fill-opacity:1;fill-rule:nonzero;stroke:none"
             d="M 0,0 C 0,-0.627 -0.064,-1.655 -0.19,-2.396 -0.571,-4.335 -2.158,-5.304 -4.569,-5.304 H -21.13 c -2.283,0 -3.934,1.311 -3.934,3.764 v 35.128 l 0.444,0.342 h 2.538 c 2.792,0 3.809,-1.199 3.809,-3.879 V -0.229 C -16.308,-0.058 -14.341,0 -12.627,0 Z" /></g><g
           transform="translate(28.209,94.7004)"
           id="g44"><path
             id="path46"
             style="fill:#004e20;fill-opacity:1;fill-rule:nonzero;stroke:none"
             d="m 0,0 c 0.949,0.029 1.984,0.059 2.414,0.059 2.558,0 3.074,2.097 3.074,3.619 0,1.551 -0.516,3.621 -3.074,3.621 -0.718,0 -1.551,0 -2.414,0.03 z M 2.644,-2.931 H 0 v -6.523 c -0.603,-0.115 -1.379,-0.142 -1.925,-0.142 -0.516,0 -1.32,0.027 -1.925,0.142 v 19.483 l 0.202,0.172 c 2.298,0.059 4.223,0.115 6.292,0.115 3.965,0 6.81,-2.156 6.81,-6.638 0,-4.339 -2.845,-6.609 -6.81,-6.609" /></g><g
           transform="translate(43.209,92.7458)"
           id="g48"><path
             id="path50"
             style="fill:#004e20;fill-opacity:1;fill-rule:nonzero;stroke:none"
             d="M 0,0 C 0.403,0 1.006,0.029 1.294,0.029 H 3.765 C 4.022,0.029 4.568,0 4.972,0 L 4.109,2.933 C 3.622,4.57 2.988,6.783 2.558,8.507 H 2.386 C 2.098,7.042 1.495,4.971 1.121,3.651 Z m -0.948,-3.044 -1.351,-4.484 c -0.488,-0.114 -1.061,-0.143 -1.667,-0.143 -0.602,0 -1.379,0.086 -1.839,0.258 l -0.142,0.202 6.407,19.339 c 0.632,0.086 1.581,0.143 2.242,0.143 0.603,0 1.609,-0.057 2.213,-0.172 l 6.292,-19.34 C 10.661,-7.556 9.741,-7.73 8.994,-7.73 c -1.234,0 -1.839,0.433 -2.299,2.07 l -0.803,2.616 c -0.431,0 -1.121,-0.03 -1.41,-0.03 H 0.46 c -0.287,0 -0.948,0 -1.408,0.03" /></g><g
           transform="translate(58.4111,99.5564)"
           id="g52"><path
             id="path54"
             style="fill:#004e20;fill-opacity:1;fill-rule:nonzero;stroke:none"
             d="M 0,0 C 0,0.776 0.027,1.322 0.027,2.126 H 0 c -0.403,0 -1.323,-0.027 -1.726,-0.027 H -4.915 C -5.03,2.672 -5.06,3.248 -5.06,3.708 c 0,0.43 0.03,1.034 0.145,1.609 H 8.821 c 0.114,-0.402 0.2,-1.005 0.2,-1.494 0,-1.264 -0.66,-1.724 -2.068,-1.724 H 5.604 C 5.2,2.099 4.28,2.126 3.878,2.126 H 3.85 C 3.85,1.322 3.878,0.776 3.878,0 v -14.31 c -0.662,-0.115 -1.38,-0.142 -1.953,-0.142 -0.548,0 -1.266,0.027 -1.925,0.142 z" /></g><g
           transform="translate(73.7256,95.7649)"
           id="g56"><path
             id="path58"
             style="fill:#004e20;fill-opacity:1;fill-rule:nonzero;stroke:none"
             d="m 0,0 c 1.006,0.057 2.098,0.086 2.644,0.086 2.5,0 3.073,1.522 3.073,3.103 0,1.608 -0.573,3.103 -3.073,3.103 -0.691,0 -1.753,0 -2.644,0.029 z m 6.091,-2.07 c 1.035,-0.374 1.723,-1.35 2.127,-2.528 l 1.064,-2.903 c 0.285,-0.804 0.718,-1.581 1.35,-2.098 -0.489,-0.688 -1.552,-1.15 -2.558,-1.15 -1.408,0 -1.897,0.777 -2.443,2.271 l -1.207,3.42 C 3.993,-3.909 3.418,-2.99 1.751,-2.99 H 0 v -7.528 c -0.634,-0.115 -1.381,-0.143 -1.927,-0.143 -0.487,0 -1.293,0.028 -1.895,0.143 V 8.964 l 0.201,0.172 c 2.299,0.059 4.482,0.116 6.552,0.116 3.993,0 6.752,-1.982 6.752,-6.063 0,-2.73 -1.724,-4.598 -3.592,-5.259" /></g><g
           transform="translate(87.46,104.8738)"
           id="g60"><path
             id="path62"
             style="fill:#004e20;fill-opacity:1;fill-rule:nonzero;stroke:none"
             d="M 0,0 C 0.575,0.114 1.409,0.143 1.926,0.143 2.472,0.143 3.219,0.114 3.851,0 v -19.627 c -0.632,-0.115 -1.379,-0.143 -1.925,-0.143 -0.517,0 -1.351,0.028 -1.926,0.143 z" /></g><g
           transform="translate(100.1318,92.7458)"
           id="g64"><path
             id="path66"
             style="fill:#004e20;fill-opacity:1;fill-rule:nonzero;stroke:none"
             d="M 0,0 C 0.403,0 1.006,0.029 1.294,0.029 H 3.765 C 4.022,0.029 4.568,0 4.972,0 L 4.108,2.933 C 3.622,4.57 2.987,6.783 2.558,8.507 H 2.385 C 2.098,7.042 1.495,4.971 1.121,3.651 Z m -0.948,-3.044 -1.351,-4.484 c -0.489,-0.114 -1.064,-0.143 -1.667,-0.143 -0.602,0 -1.379,0.086 -1.839,0.258 l -0.142,0.202 6.407,19.339 c 0.632,0.086 1.581,0.143 2.242,0.143 0.603,0 1.609,-0.057 2.211,-0.172 l 6.294,-19.34 C 10.661,-7.556 9.741,-7.73 8.994,-7.73 c -1.234,0 -1.839,0.433 -2.299,2.07 l -0.803,2.616 c -0.431,0 -1.121,-0.03 -1.41,-0.03 H 0.46 c -0.287,0 -0.949,0 -1.408,0.03" /></g><g
           transform="translate(124.4131,92.7458)"
           id="g68"><path
             id="path70"
             style="fill:#004e20;fill-opacity:1;fill-rule:nonzero;stroke:none"
             d="M 0,0 C 0.403,0 1.006,0.029 1.294,0.029 H 3.765 C 4.022,0.029 4.568,0 4.972,0 L 4.109,2.933 C 3.622,4.57 2.988,6.783 2.558,8.507 H 2.386 C 2.098,7.042 1.495,4.971 1.121,3.651 Z m -0.948,-3.044 -1.351,-4.484 c -0.488,-0.114 -1.061,-0.143 -1.666,-0.143 -0.602,0 -1.38,0.086 -1.84,0.258 l -0.142,0.202 6.407,19.339 c 0.632,0.086 1.581,0.143 2.242,0.143 0.603,0 1.609,-0.057 2.213,-0.172 l 6.292,-19.34 C 10.661,-7.556 9.741,-7.73 8.994,-7.73 c -1.234,0 -1.839,0.433 -2.299,2.07 l -0.803,2.616 c -0.431,0 -1.121,-0.03 -1.41,-0.03 H 0.46 c -0.287,0 -0.948,0 -1.408,0.03" /></g><g
           transform="translate(139.3818,104.8445)"
           id="g72"><path
             id="path74"
             style="fill:#004e20;fill-opacity:1;fill-rule:nonzero;stroke:none"
             d="M 0,0 C 0.834,0.143 1.928,0.202 2.587,0.202 3.277,0.202 4.225,0.143 5.03,0 l 2.213,-7.961 c 0.201,-0.804 0.92,-3.764 1.092,-4.913 h 0.201 c 0.173,1.149 0.891,4.109 1.092,4.913 L 11.812,0 c 0.863,0.143 1.782,0.202 2.441,0.202 0.69,0 1.753,-0.059 2.616,-0.202 l 1.522,-19.541 c -0.546,-0.143 -1.321,-0.199 -1.953,-0.199 -0.604,0 -1.15,0.027 -1.696,0.113 l -0.546,9.225 c -0.115,1.782 -0.228,4.425 -0.228,6.235 h -0.202 l -3.363,-12.5 C 9.83,-16.753 8.967,-16.81 8.421,-16.81 c -0.519,0 -1.379,0.057 -1.954,0.143 l -3.362,12.5 H 2.904 C 2.874,-5.977 2.788,-8.62 2.673,-10.402 l -0.546,-9.225 c -0.546,-0.086 -1.119,-0.113 -1.724,-0.113 -0.602,0 -1.379,0.056 -1.924,0.199 z" /></g><g
           transform="translate(165.9648,92.7458)"
           id="g76"><path
             id="path78"
             style="fill:#004e20;fill-opacity:1;fill-rule:nonzero;stroke:none"
             d="M 0,0 C 0.402,0 1.005,0.029 1.293,0.029 H 3.764 C 4.022,0.029 4.568,0 4.971,0 L 4.108,2.933 C 3.621,4.57 2.987,6.783 2.557,8.507 H 2.385 C 2.097,7.042 1.494,4.971 1.121,3.651 Z m -0.949,-3.044 -1.35,-4.484 c -0.489,-0.114 -1.062,-0.143 -1.667,-0.143 -0.602,0 -1.38,0.086 -1.839,0.258 l -0.143,0.202 6.407,19.339 c 0.633,0.086 1.581,0.143 2.242,0.143 0.603,0 1.609,-0.057 2.213,-0.172 l 6.292,-19.34 C 10.66,-7.556 9.741,-7.73 8.993,-7.73 c -1.234,0 -1.839,0.433 -2.299,2.07 l -0.803,2.616 c -0.431,0 -1.121,-0.03 -1.41,-0.03 H 0.459 c -0.287,0 -0.948,0 -1.408,0.03" /></g><g
           transform="translate(186.9395,101.9704)"
           id="g80"><path
             id="path82"
             style="fill:#004e20;fill-opacity:1;fill-rule:nonzero;stroke:none"
             d="M 0,0 C -1.092,0 -1.981,0 -3.132,0.029 V -13.85 c 1.151,0.028 2.04,0.028 3.132,0.028 3.765,0 4.311,3.766 4.311,6.926 C 4.311,-3.735 3.765,0 0,0 M 5.144,-15.43 C 3.88,-16.465 1.552,-16.866 0,-16.866 c -2.414,0 -4.28,0.056 -6.781,0.113 l -0.201,0.172 v 19.34 l 0.201,0.172 C -4.31,3.017 -2.414,3.046 0,3.046 c 1.552,0 3.88,-0.403 5.144,-1.436 2.643,-2.127 3.132,-5.173 3.132,-8.506 0,-3.361 -0.46,-6.408 -3.132,-8.534" /></g><g
           transform="translate(202.4854,92.7458)"
           id="g84"><path
             id="path86"
             style="fill:#004e20;fill-opacity:1;fill-rule:nonzero;stroke:none"
             d="M 0,0 C 0.403,0 1.006,0.029 1.293,0.029 H 3.765 C 4.022,0.029 4.568,0 4.972,0 L 4.108,2.933 C 3.621,4.57 2.987,6.783 2.558,8.507 H 2.385 C 2.098,7.042 1.495,4.971 1.121,3.651 Z m -0.949,-3.044 -1.35,-4.484 c -0.489,-0.114 -1.064,-0.143 -1.667,-0.143 -0.602,0 -1.379,0.086 -1.839,0.258 l -0.142,0.202 6.407,19.339 c 0.632,0.086 1.581,0.143 2.242,0.143 0.603,0 1.609,-0.057 2.211,-0.172 l 6.294,-19.34 C 10.661,-7.556 9.741,-7.73 8.994,-7.73 c -1.234,0 -1.839,0.433 -2.299,2.07 l -0.804,2.616 c -0.43,0 -1.121,-0.03 -1.409,-0.03 H 0.46 c -0.288,0 -0.949,0 -1.409,0.03" /></g><g
           transform="translate(49.3213,111.594)"
           id="g88"><path
             id="path90"
             style="fill:#004e20;fill-opacity:1;fill-rule:nonzero;stroke:none"
             d="m 0,0 c 0.567,-0.298 1.343,-1.198 1.544,-2.052 l -4.759,-2.829 c -0.48,0.174 -0.919,0.811 -1.061,1.287 z" /></g><g
           transform="translate(29.1074,27.7854)"
           id="g92"><path
             id="path94"
             style="fill:#7b7979;fill-opacity:1;fill-rule:nonzero;stroke:none"
             d="m 0,0 2.193,0.015 c 0.987,0 1.48,-0.466 1.48,-1.397 v -3.674 c -1.2,-0.381 -2.463,-0.572 -3.784,-0.572 -0.671,0 -1.265,0.111 -1.782,0.336 -0.516,0.222 -0.95,0.544 -1.298,0.962 -0.35,0.42 -0.613,0.934 -0.789,1.544 -0.178,0.61 -0.266,1.302 -0.266,2.075 0,0.846 0.123,1.585 0.37,2.213 0.247,0.629 0.577,1.152 0.992,1.572 0.413,0.418 0.891,0.733 1.432,0.943 C -0.913,4.226 -0.35,4.33 0.237,4.33 1.448,4.33 2.584,3.996 3.646,3.325 3.636,3.176 3.601,3.024 3.541,2.871 3.479,2.717 3.405,2.568 3.317,2.424 3.229,2.28 3.126,2.149 3.01,2.033 2.894,1.916 2.774,1.816 2.653,1.732 1.881,2.235 1.099,2.487 0.308,2.487 c -1.519,0 -2.278,-1.062 -2.278,-3.185 0,-2.114 0.778,-3.17 2.333,-3.17 0.214,0 0.421,0.009 0.621,0.027 0.201,0.019 0.399,0.047 0.594,0.084 v 0.936 c 0,0.215 0.002,0.401 0.008,0.559 0.004,0.158 0.011,0.293 0.02,0.405 H 0.908 c -0.4,0 -0.678,0.076 -0.832,0.23 -0.153,0.154 -0.229,0.394 -0.229,0.72 0,0.28 0.05,0.582 0.153,0.907" /></g><g
           transform="translate(41.4131,24.9641)"
           id="g96"><path
             id="path98"
             style="fill:#7b7979;fill-opacity:1;fill-rule:nonzero;stroke:none"
             d="m 0,0 c 0.251,-0.726 0.759,-1.089 1.522,-1.089 0.382,0 0.692,0.095 0.929,0.286 0.237,0.191 0.424,0.433 0.559,0.726 C 3.145,0.217 3.235,0.545 3.282,0.908 3.328,1.272 3.353,1.63 3.353,1.983 3.353,2.31 3.34,2.672 3.317,3.074 3.294,3.474 3.226,3.849 3.114,4.197 3.003,4.546 2.826,4.84 2.584,5.077 2.342,5.315 1.987,5.434 1.522,5.434 1.075,5.434 0.733,5.319 0.495,5.092 0.258,4.863 0.081,4.582 -0.035,4.247 -0.151,3.912 -0.224,3.555 -0.252,3.178 -0.279,2.801 -0.293,2.468 -0.293,2.179 -0.293,1.75 -0.272,1.37 -0.23,1.034 -0.188,0.699 -0.112,0.354 0,0 m -1.132,-1.927 c -0.996,0.829 -1.494,2.193 -1.494,4.093 0,0.819 0.095,1.538 0.286,2.158 0.191,0.618 0.465,1.138 0.824,1.556 0.359,0.42 0.794,0.736 1.306,0.951 0.513,0.213 1.09,0.32 1.732,0.32 0.643,0 1.222,-0.107 1.739,-0.32 C 3.778,6.616 4.216,6.297 4.574,5.874 4.933,5.45 5.207,4.928 5.398,4.31 5.589,3.69 5.685,2.976 5.685,2.166 5.685,1.355 5.589,0.641 5.398,0.021 5.207,-0.598 4.933,-1.117 4.574,-1.536 4.216,-1.955 3.778,-2.271 3.261,-2.486 2.744,-2.7 2.165,-2.807 1.522,-2.807 c -1.061,0 -1.946,0.294 -2.654,0.88" /></g><g
           transform="translate(56.6787,24.238)"
           id="g100"><path
             id="path102"
             style="fill:#7b7979;fill-opacity:1;fill-rule:nonzero;stroke:none"
             d="m 0,0 1.83,7.668 c 0.224,0.056 0.512,0.084 0.866,0.084 0.484,0 0.867,-0.051 1.145,-0.153 L 3.925,7.486 1.313,-1.872 c -0.531,-0.055 -1.064,-0.084 -1.599,-0.084 -0.535,0 -0.922,0.068 -1.159,0.204 -0.238,0.135 -0.417,0.402 -0.538,0.802 l -2.319,8.423 c 0.503,0.214 0.917,0.321 1.243,0.321 0.391,0 0.68,-0.088 0.867,-0.266 0.185,-0.176 0.33,-0.456 0.432,-0.838 L -0.685,2.709 C -0.517,2.085 -0.34,1.239 -0.153,0.168 -0.135,0.057 -0.083,0 0,0" /></g><g
           transform="translate(68.7744,25.1882)"
           id="g104"><path
             id="path106"
             style="fill:#7b7979;fill-opacity:1;fill-rule:nonzero;stroke:none"
             d="M 0,0 -0.014,-1.006 V -1.02 c 0.427,0.019 0.771,0.028 1.031,0.028 h 3.229 c 0,-0.345 -0.014,-0.61 -0.042,-0.796 C 4.093,-2.505 3.617,-2.864 2.78,-2.864 h -3.716 c -0.4,0 -0.714,0.116 -0.943,0.349 -0.227,0.233 -0.342,0.551 -0.342,0.951 V 6.62 l 0.098,0.098 h 6.02 C 3.953,6.448 3.98,6.154 3.98,5.838 3.98,5.522 3.916,5.191 3.786,4.847 h -3.8 L 0,3.841 V 2.863 c 0.241,0.01 0.557,0.014 0.945,0.014 H 3.073 C 3.156,2.617 3.199,2.319 3.199,1.983 3.199,1.648 3.156,1.341 3.073,1.062 H 0 Z" /></g><g
           transform="translate(81.583,30.3284)"
           id="g108"><path
             id="path110"
             style="fill:#7b7979;fill-opacity:1;fill-rule:nonzero;stroke:none"
             d="m 0,0 v -2.752 c 0.419,0 0.777,0.007 1.075,0.021 0.298,0.014 0.537,0.07 0.72,0.168 0.181,0.099 0.318,0.237 0.412,0.415 0.092,0.177 0.14,0.435 0.14,0.772 0,0.908 -0.439,1.361 -1.314,1.361 H 0.454 C 0.281,-0.015 0.13,-0.01 0,0 m 4.623,-1.369 c 0,-0.308 -0.047,-0.598 -0.14,-0.873 C 4.39,-2.517 4.267,-2.764 4.113,-2.982 3.959,-3.202 3.777,-3.393 3.568,-3.555 3.358,-3.718 3.143,-3.841 2.919,-3.925 3.403,-4.103 3.762,-4.531 3.994,-5.21 L 4.413,-6.397 C 4.571,-6.863 4.805,-7.207 5.111,-7.431 4.973,-7.617 4.763,-7.773 4.483,-7.899 4.204,-8.025 3.896,-8.088 3.562,-8.088 3.227,-8.088 2.966,-7.992 2.779,-7.801 2.593,-7.61 2.42,-7.277 2.263,-6.802 L 1.76,-5.336 C 1.657,-5.056 1.52,-4.842 1.348,-4.693 1.175,-4.544 0.916,-4.47 0.572,-4.47 H 0 v -3.492 c -0.299,-0.056 -0.671,-0.084 -1.118,-0.084 -0.446,0 -0.815,0.028 -1.103,0.084 v 9.47 l 0.098,0.098 c 0.81,0.019 1.492,0.032 2.046,0.042 0.554,0.009 0.989,0.014 1.306,0.014 0.511,0 0.978,-0.063 1.396,-0.188 C 3.044,1.348 3.4,1.159 3.694,0.907 3.987,0.656 4.215,0.34 4.378,-0.042 4.541,-0.424 4.623,-0.866 4.623,-1.369" /></g><g
           transform="translate(100.2568,32.0041)"
           id="g112"><path
             id="path114"
             style="fill:#7b7979;fill-opacity:1;fill-rule:nonzero;stroke:none"
             d="m 0,0 0.098,-0.098 v -9.498 c -0.372,-0.084 -0.813,-0.126 -1.321,-0.126 -0.506,0 -0.956,0.029 -1.347,0.084 l -2.193,5.001 c -0.26,0.567 -0.526,1.224 -0.796,1.969 l -0.042,-0.014 c 0.112,-1.36 0.167,-2.752 0.167,-4.176 v -2.78 c -0.288,-0.055 -0.637,-0.084 -1.046,-0.084 -0.411,0 -0.755,0.029 -1.035,0.084 v 9.498 c 0.354,0.084 0.781,0.126 1.279,0.126 0.498,0 0.942,-0.028 1.334,-0.084 l 2.165,-4.986 c 0.39,-0.922 0.679,-1.63 0.866,-2.123 l 0.056,0.028 c -0.113,1.294 -0.168,2.667 -0.168,4.12 v 1.704 c 0,0.484 0.097,0.831 0.293,1.041 C -1.494,-0.104 -1.178,0 -0.74,0 Z" /></g><g
           transform="translate(109.3223,24.9641)"
           id="g116"><path
             id="path118"
             style="fill:#7b7979;fill-opacity:1;fill-rule:nonzero;stroke:none"
             d="m 0,0 c 0.251,-0.726 0.759,-1.089 1.521,-1.089 0.382,0 0.693,0.095 0.93,0.286 0.237,0.191 0.423,0.433 0.558,0.726 0.136,0.294 0.226,0.622 0.273,0.985 0.046,0.364 0.07,0.722 0.07,1.075 C 3.352,2.31 3.34,2.672 3.316,3.074 3.293,3.474 3.226,3.849 3.114,4.197 3.002,4.546 2.825,4.84 2.583,5.077 2.342,5.315 1.987,5.434 1.521,5.434 1.075,5.434 0.732,5.319 0.495,5.092 0.258,4.863 0.081,4.582 -0.035,4.247 -0.152,3.912 -0.225,3.555 -0.252,3.178 -0.28,2.801 -0.294,2.468 -0.294,2.179 -0.294,1.75 -0.273,1.37 -0.231,1.034 -0.189,0.699 -0.112,0.354 0,0 m -1.132,-1.927 c -0.996,0.829 -1.494,2.193 -1.494,4.093 0,0.819 0.095,1.538 0.286,2.158 0.191,0.618 0.465,1.138 0.823,1.556 0.36,0.42 0.794,0.736 1.307,0.951 0.512,0.213 1.09,0.32 1.731,0.32 0.643,0 1.223,-0.107 1.74,-0.32 C 3.777,6.616 4.215,6.297 4.574,5.874 4.932,5.45 5.207,4.928 5.398,4.31 5.589,3.69 5.684,2.976 5.684,2.166 5.684,1.355 5.589,0.641 5.398,0.021 5.207,-0.598 4.932,-1.117 4.574,-1.536 4.215,-1.955 3.777,-2.271 3.261,-2.486 2.744,-2.7 2.164,-2.807 1.521,-2.807 c -1.06,0 -1.945,0.294 -2.653,0.88" /></g><g
           transform="translate(131.4316,30.0066)"
           id="g120"><path
             id="path122"
             style="fill:#7b7979;fill-opacity:1;fill-rule:nonzero;stroke:none"
             d="m 0,0 0.014,-1.089 v -0.88 h 3.004 c 0.074,-0.28 0.111,-0.585 0.111,-0.915 0,-0.331 -0.037,-0.636 -0.111,-0.915 H 0.014 V -7.64 c -0.296,-0.056 -0.666,-0.084 -1.111,-0.084 -0.443,0 -0.814,0.028 -1.109,0.084 v 9.455 l 0.098,0.084 H 3.869 C 3.925,1.667 3.953,1.376 3.953,1.027 3.953,0.678 3.857,0.419 3.666,0.251 3.475,0.084 3.173,0 2.762,0 Z" /></g><g
           transform="translate(143.6953,25.1882)"
           id="g124"><path
             id="path126"
             style="fill:#7b7979;fill-opacity:1;fill-rule:nonzero;stroke:none"
             d="M 0,0 -0.015,-1.006 V -1.02 c 0.427,0.019 0.771,0.028 1.031,0.028 h 3.23 c 0,-0.345 -0.015,-0.61 -0.042,-0.796 C 4.092,-2.505 3.617,-2.864 2.779,-2.864 h -3.716 c -0.4,0 -0.714,0.116 -0.942,0.349 -0.228,0.233 -0.342,0.551 -0.342,0.951 V 6.62 l 0.098,0.098 H 3.896 C 3.952,6.448 3.98,6.154 3.98,5.838 3.98,5.522 3.915,5.191 3.785,4.847 h -3.8 L 0,3.841 V 2.863 c 0.241,0.01 0.556,0.014 0.945,0.014 H 3.072 C 3.156,2.617 3.198,2.319 3.198,1.983 3.198,1.648 3.156,1.341 3.072,1.062 H 0 Z" /></g><g
           transform="translate(157.8857,24.0285)"
           id="g128"><path
             id="path130"
             style="fill:#7b7979;fill-opacity:1;fill-rule:nonzero;stroke:none"
             d="M 0,0 C 1.229,0 1.844,1.033 1.844,3.101 1.844,5.177 1.229,6.216 0,6.216 h -0.789 c -0.229,0 -0.426,0.004 -0.594,0.013 V -0.014 C -1.215,-0.004 -1.018,0 -0.789,0 Z M 2.57,-1.047 C 2.271,-1.289 1.881,-1.466 1.396,-1.578 0.912,-1.69 0.377,-1.746 -0.21,-1.746 c -0.288,0 -0.705,0.005 -1.249,0.015 -0.546,0.009 -1.228,0.023 -2.047,0.041 l -0.098,0.098 v 9.4 l 0.098,0.098 c 0.54,0.018 1.102,0.032 1.684,0.042 0.582,0.009 1.193,0.014 1.836,0.014 0.792,0 1.453,-0.127 1.983,-0.378 C 2.528,7.333 2.952,6.989 3.269,6.551 3.585,6.113 3.809,5.599 3.938,5.008 4.069,4.416 4.135,3.781 4.135,3.101 4.135,2.17 4.027,1.364 3.813,0.685 3.599,0.004 3.185,-0.573 2.57,-1.047" /></g><g
           transform="translate(170.5957,25.1882)"
           id="g132"><path
             id="path134"
             style="fill:#7b7979;fill-opacity:1;fill-rule:nonzero;stroke:none"
             d="M 0,0 -0.014,-1.006 V -1.02 c 0.427,0.019 0.771,0.028 1.031,0.028 h 3.229 c 0,-0.345 -0.014,-0.61 -0.042,-0.796 C 4.093,-2.505 3.618,-2.864 2.78,-2.864 h -3.716 c -0.4,0 -0.714,0.116 -0.942,0.349 -0.228,0.233 -0.343,0.551 -0.343,0.951 V 6.62 l 0.098,0.098 h 6.02 C 3.953,6.448 3.98,6.154 3.98,5.838 3.98,5.522 3.916,5.191 3.786,4.847 h -3.8 L 0,3.841 V 2.863 c 0.241,0.01 0.557,0.014 0.945,0.014 H 3.073 C 3.157,2.617 3.199,2.319 3.199,1.983 3.199,1.648 3.157,1.341 3.073,1.062 H 0 Z" /></g><g
           transform="translate(183.4043,30.3284)"
           id="g136"><path
             id="path138"
             style="fill:#7b7979;fill-opacity:1;fill-rule:nonzero;stroke:none"
             d="m 0,0 v -2.752 c 0.419,0 0.777,0.007 1.075,0.021 0.298,0.014 0.538,0.07 0.72,0.168 0.181,0.099 0.318,0.237 0.412,0.415 0.093,0.177 0.14,0.435 0.14,0.772 0,0.908 -0.439,1.361 -1.314,1.361 H 0.454 C 0.281,-0.015 0.13,-0.01 0,0 m 4.623,-1.369 c 0,-0.308 -0.047,-0.598 -0.14,-0.873 C 4.39,-2.517 4.267,-2.764 4.113,-2.982 3.96,-3.202 3.777,-3.393 3.568,-3.555 3.358,-3.718 3.143,-3.841 2.919,-3.925 3.403,-4.103 3.762,-4.531 3.994,-5.21 l 0.42,-1.187 C 4.571,-6.863 4.805,-7.207 5.111,-7.431 4.973,-7.617 4.763,-7.773 4.483,-7.899 4.204,-8.025 3.896,-8.088 3.562,-8.088 c -0.335,0 -0.596,0.096 -0.783,0.287 -0.186,0.191 -0.358,0.524 -0.516,0.999 L 1.76,-5.336 C 1.657,-5.056 1.52,-4.842 1.348,-4.693 1.175,-4.544 0.917,-4.47 0.572,-4.47 H 0 v -3.492 c -0.299,-0.056 -0.671,-0.084 -1.118,-0.084 -0.446,0 -0.815,0.028 -1.103,0.084 v 9.47 l 0.098,0.098 c 0.81,0.019 1.492,0.032 2.046,0.042 0.554,0.009 0.989,0.014 1.306,0.014 0.511,0 0.978,-0.063 1.397,-0.188 C 3.045,1.348 3.4,1.159 3.694,0.907 3.987,0.656 4.216,0.34 4.379,-0.042 4.541,-0.424 4.623,-0.866 4.623,-1.369" /></g><g
           transform="translate(196.8408,26.1238)"
           id="g140"><path
             id="path142"
             style="fill:#7b7979;fill-opacity:1;fill-rule:nonzero;stroke:none"
             d="M 0,0 0.559,0.015 H 1.578 C 1.624,0.015 1.706,0.012 1.822,0.007 1.938,0.002 2.025,0 2.081,0 L 1.844,0.866 C 1.62,1.648 1.363,2.607 1.075,3.743 H 0.991 C 0.917,3.343 0.693,2.454 0.321,1.075 Z m 0.042,-1.76 c -0.252,0 -0.438,0.005 -0.56,0.014 l -0.6,-2.025 c -0.223,-0.056 -0.535,-0.084 -0.936,-0.084 -0.447,0 -0.809,0.051 -1.089,0.154 l -0.07,0.111 3.073,9.372 c 0.363,0.056 0.786,0.085 1.271,0.085 0.55,0 0.987,-0.034 1.313,-0.098 L 5.461,-3.617 C 5.135,-3.794 4.767,-3.883 4.357,-3.883 c -0.484,0 -0.824,0.084 -1.019,0.252 -0.195,0.167 -0.363,0.489 -0.503,0.963 L 2.569,-1.746 C 2.448,-1.755 2.267,-1.76 2.025,-1.76 Z" /></g><g
           transform="translate(211.79,24.2522)"
           id="g144"><path
             id="path146"
             style="fill:#7b7979;fill-opacity:1;fill-rule:nonzero;stroke:none"
             d="m 0,0 h 2.426 c 0,-0.373 -0.024,-0.691 -0.07,-0.957 C 2.309,-1.222 2.16,-1.451 1.909,-1.641 1.657,-1.832 1.327,-1.928 0.917,-1.928 h -3.156 c -0.401,0 -0.717,0.116 -0.95,0.349 -0.233,0.233 -0.349,0.551 -0.349,0.951 v 8.282 l 0.097,0.098 h 0.819 c 0.869,0 1.305,-0.475 1.305,-1.425 V -0.056 C -0.906,-0.019 -0.467,0 0,0" /></g><path
           id="path148"
           style="fill:#ffffff;fill-opacity:1;fill-rule:nonzero;stroke:none"
           d="M 214.217,114.814 H 24.272 v 134.443 h 189.945 z" /></g></g><g
       id="g150"><g
         id="g152"><g
           id="g158"><g
             id="g160"><path
               id="path172"
               style="fill:url(#linearGradient170);stroke:none"
               d="m 24.271,249.277 v -73.101 l 75.589,60.99 114.357,-50.441 v 62.552 z" /></g></g></g></g><g
       id="g174"><g
         id="g176"><g
           id="g182"><g
             id="g184"><path
               id="path192"
               style="fill:url(#linearGradient190);stroke:none"
               d="m 24.271,176.176 v -51.83 c 0,0 6.048,5.284 17.327,12.777 v 0 c 5.377,33.421 34.348,58.95 69.285,58.95 v 0 c 15.828,0 30.431,-5.242 42.173,-14.081 v 0 c 18.776,3.46 39.241,5.353 61.161,4.733 v 0 L 99.86,237.166 Z" /></g></g></g></g><g
       id="g194"><g
         clip-path="url(#clipPath200)"
         id="g196"><g
           id="g202"><g
             id="g204" /><g
             mask="url(#mask218)"
             id="g230"><g
               id="g232"><path
                 id="path242"
                 style="fill:url(#radialGradient240);stroke:none"
                 d="m 26.167,126.989 c 0,-0.354 0.002,-0.711 0.006,-1.064 v 0 c 2.599,2.102 7.824,6.148 15.425,11.198 v 0 c 5.377,33.421 34.348,58.95 69.285,58.95 v 0 c 15.828,0 30.431,-5.242 42.173,-14.081 v 0 c 6.237,1.149 12.663,2.126 19.265,2.895 v 0 c -15.307,18.125 -37.683,29.551 -62.611,29.551 v 0 c -46.139,0 -83.543,-39.152 -83.543,-87.449" /></g></g></g></g></g><g
       id="g244"><g
         id="g246"><g
           id="g252"><g
             id="g254"><path
               id="path262"
               style="fill:url(#linearGradient260);stroke:none"
               d="m 41.598,137.123 c 20.89,13.88 59.747,35.337 111.458,44.869 v 0 c -11.742,8.839 -26.345,14.081 -42.173,14.081 v 0 c -34.937,0 -63.908,-25.529 -69.285,-58.95" /></g></g></g></g><g
       id="g264"><g
         clip-path="url(#clipPath270)"
         id="g266"><g
           transform="translate(153.0557,181.9914)"
           id="g272"><path
             id="path274"
             style="fill:#ffffff;fill-opacity:1;fill-rule:nonzero;stroke:none"
             d="m 0,0 c -51.71,-9.532 -90.567,-30.989 -111.458,-44.868 -11.278,-7.493 -17.326,-12.778 -17.326,-12.778 v -9.552 c 0,0 5.558,4.639 16.427,11.047 22.041,12.994 65.952,33.277 129.867,36.987 13.645,0.792 28.202,0.829 43.651,-0.122 V 4.733 C 39.241,5.354 18.776,3.461 0,0" /></g></g></g><g
       id="g276"><g
         id="g278"><g
           id="g284"><g
             id="g286"><path
               id="path296"
               style="fill:url(#linearGradient294);stroke:none"
               d="M 170.565,162.827 C 106.65,159.117 62.739,138.835 40.698,125.84 v 0 C 29.831,119.433 24.271,114.794 24.271,114.794 v 0 h 17.304 138.617 34.025 v 47.912 c -7.911,0.487 -15.591,0.715 -23.032,0.715 v 0 c -7.09,0 -13.962,-0.207 -20.62,-0.594" /></g></g></g></g></g></svg>